<svg version="1" id="Layer_1" xmlns="http://www.w3.org/2000/svg" xmlns:xlink="http://www.w3.org/1999/xlink" width="591.9" height="229.5" viewBox="0 0 591.9 229.5"><style>.st0{clip-path:url(#SVGID_2_)}.st1{clip-path:url(#SVGID_4_)}.st2{fill:red}.st3{fill:#fff}.st4{fill:none;stroke:#000;stroke-width:2.5;stroke-miterlimit:10}</style><g id="white"><path d="M150.9 147.4l-95.3-49v35l95.3 49z"/><path d="M268.6 98.4l-95.4-49v35l95.4 49z" id="full_1_"/><path class="st3" d="M268.6 133.1l-95.4 49v-35l95.4-49z" id="full_2_"/><defs><path id="SVGID_1_" d="M173.2 147.1l95.4-49v35l-95.4 49z"/></defs><clipPath id="SVGID_2_"><use xlink:href="#SVGID_1_" overflow="visible"/></clipPath><g class="st0"><path class="st4" d="M150.6 157.1l34.6 33m-30.5-35.6l34.6 33M158.8 152l34.6 33m-30.5-35.6l34.7 33M167 146.8l34.7 33m-30.6-35.6l34.7 33m-30.6-35.6l34.7 33m-30.6-35.5l34.7 33m-30.6-35.6l34.7 33m-30.6-35.6l34.7 33m-30.6-35.6l34.7 33m-30.5-35.6l34.6 33m-30.5-35.6l34.6 33M204 123.6l34.6 33M208.1 121l34.6 33m-30.5-35.6l34.7 33m-30.6-35.6l34.7 33m-30.6-35.6l34.7 33m-30.6-35.5l34.7 32.9m-30.6-35.5l34.7 33m-30.6-35.6l34.7 33m-30.6-35.6l34.7 33M241 100.3l34.6 33m-30.5-35.6l34.6 33m-30.5-35.5l34.6 33m-30.5-35.6l34.6 33M257.4 90l34.7 33"/></g><path class="st3" d="M150.9 84.3l-95.3 49v-35l95.3-49z" id="full_3_"/><defs><path id="SVGID_3_" d="M55.6 98.3l95.3-49v35l-95.3 49z"/></defs><clipPath id="SVGID_4_"><use xlink:href="#SVGID_3_" overflow="visible"/></clipPath><g class="st1"><path class="st4" d="M32.9 108.4l34.7 33M37 105.8l34.7 33m-30.6-35.6l34.7 33m-30.6-35.6l34.7 33M49.3 98L84 131M53.4 95.5l34.7 33M57.5 92.9l34.7 33M61.7 90.3l34.6 33M65.8 87.7l34.6 33M69.9 85.1l34.6 33M74 82.6l34.6 33M78.1 80l34.7 33M82.2 77.4l34.7 33M86.3 74.8l34.7 33M90.4 72.2l34.7 33M94.5 69.6l34.7 33M98.6 67.1l34.7 33m-30.6-35.6l34.7 33m-30.5-35.6l34.6 33M111 59.3l34.6 33m-30.5-35.6l34.6 33m-30.5-35.5l34.6 33m-30.5-35.6l34.7 33M127.4 49l34.7 33m-30.6-35.6l34.7 33m-30.6-35.6l34.7 33m-30.6-35.6l34.7 33"/></g><path d="M285.5 81.4l14.7 22.6h.1V81.4h3.5v27.8h-4.1l-14.5-22.3h-.1v22.3h-3.5V81.4h3.9zm23.4 4.1v-4.1h3.3v4.1h-3.3zm3.3 3.6v20.2h-3.3V89.1h3.3zm16.7 3.5c-.8-.7-2-1.1-3.4-1.1-1.2 0-2.2.2-3 .7-.8.4-1.5 1-1.9 1.8-.5.7-.8 1.6-1 2.5-.2.9-.3 1.9-.3 2.9 0 .9.1 1.8.3 2.7s.6 1.7 1 2.4c.5.7 1.1 1.2 1.8 1.7.8.4 1.7.6 2.7.6 1.6 0 2.9-.4 3.8-1.3s1.5-2.1 1.7-3.6h3.4c-.4 2.5-1.3 4.4-2.8 5.8-1.5 1.4-3.5 2-6.1 2-1.5 0-2.9-.2-4.1-.7-1.2-.5-2.2-1.2-3-2.1-.8-.9-1.4-2-1.8-3.3-.4-1.3-.6-2.6-.6-4.2s.2-2.9.6-4.2c.4-1.3 1-2.5 1.8-3.4.8-1 1.8-1.7 3-2.3 1.2-.6 2.6-.8 4.2-.8 1.1 0 2.2.1 3.2.4 1 .3 1.9.7 2.7 1.3.8.6 1.4 1.3 1.9 2.2s.8 1.9.9 3.1h-3.4c-.2-1.4-.8-2.4-1.6-3.1zm7.9 2.4c.4-1.3 1-2.4 1.9-3.4.8-.9 1.9-1.7 3.1-2.2 1.2-.5 2.6-.8 4.2-.8s3 .3 4.2.8c1.2.5 2.2 1.3 3.1 2.2.8.9 1.5 2.1 1.9 3.4.4 1.3.6 2.7.6 4.2s-.2 2.9-.6 4.1c-.4 1.3-1 2.4-1.9 3.3-.8.9-1.9 1.7-3.1 2.2-1.2.5-2.6.8-4.2.8s-3-.3-4.2-.8c-1.2-.5-2.2-1.3-3.1-2.2-.8-.9-1.5-2.1-1.9-3.3-.4-1.3-.6-2.7-.6-4.1 0-1.5.2-2.9.6-4.2zm3.4 7.4c.3 1 .8 1.7 1.3 2.4.6.6 1.2 1.1 2 1.5.8.3 1.6.5 2.4.5.9 0 1.7-.2 2.4-.5.8-.3 1.4-.8 2-1.5.6-.6 1-1.4 1.3-2.4.3-.9.5-2 .5-3.3 0-1.2-.2-2.3-.5-3.3s-.8-1.7-1.3-2.4-1.2-1.1-2-1.5c-.8-.3-1.6-.5-2.4-.5-.9 0-1.7.2-2.4.5-.8.3-1.4.8-2 1.5-.6.7-1 1.4-1.3 2.4s-.5 2-.5 3.3c0 1.3.2 2.4.5 3.3zm22.5-21v27.8h-3.3V81.4h3.3zm22.5 27.8c-.6.3-1.4.5-2.4.5-.9 0-1.5-.2-2-.7-.5-.5-.8-1.3-.8-2.4-.9 1.1-2 1.9-3.2 2.4-1.2.5-2.5.7-3.9.7-.9 0-1.8-.1-2.6-.3-.8-.2-1.5-.5-2.1-1-.6-.4-1.1-1-1.4-1.7-.4-.7-.5-1.6-.5-2.6 0-1.1.2-2.1.6-2.8.4-.7.9-1.3 1.5-1.8s1.4-.8 2.2-1c.8-.2 1.7-.4 2.5-.6.9-.2 1.8-.3 2.6-.4.8-.1 1.5-.2 2.2-.4.6-.2 1.1-.4 1.5-.7s.5-.8.5-1.4c0-.7-.1-1.3-.4-1.8-.3-.4-.6-.8-1.1-1-.4-.2-.9-.4-1.4-.5-.5-.1-1.1-.1-1.6-.1-1.4 0-2.6.3-3.5.8-.9.5-1.4 1.5-1.5 3H367c.1-1.2.3-2.3.8-3.2s1.1-1.6 1.9-2.1 1.7-.9 2.7-1.2c1-.2 2.1-.4 3.2-.4.9 0 1.8.1 2.7.2.9.1 1.7.4 2.4.8s1.3 1 1.8 1.7c.4.7.7 1.7.7 2.8v10.4c0 .8 0 1.3.1 1.7.1.4.4.5.9.5.3 0 .6-.1 1-.2v2.8zm-5.4-10.4c-.4.3-1 .5-1.6.7-.7.1-1.4.3-2.1.3-.7.1-1.5.2-2.2.3-.8.1-1.4.3-2 .6-.6.3-1.1.6-1.5 1.1s-.6 1.1-.6 2c0 .5.1 1 .3 1.4.2.4.5.7.9.9s.8.4 1.2.5 1 .2 1.5.2c1.1 0 2-.1 2.8-.4.8-.3 1.4-.7 1.9-1.1.5-.5.9-.9 1.1-1.5.2-.5.4-1 .4-1.5v-3.5zm10.5 5.9c.3.5.7.9 1.2 1.2s1.1.5 1.7.6c.6.1 1.3.2 2 .2.5 0 1.1 0 1.6-.1.6-.1 1.1-.2 1.6-.4s.9-.5 1.2-.9c.3-.4.5-.9.5-1.5 0-.9-.3-1.5-1-2-.7-.4-1.5-.8-2.4-1.1-1-.3-2-.5-3.2-.7-1.1-.2-2.2-.5-3.2-.9s-1.8-1-2.4-1.7c-.7-.7-1-1.7-1-3 0-1 .2-1.9.7-2.6.5-.7 1-1.3 1.8-1.8s1.5-.8 2.4-1c.9-.2 1.8-.3 2.7-.3 1.1 0 2.2.1 3.2.3 1 .2 1.8.5 2.6 1 .7.5 1.3 1.1 1.8 1.9.4.8.7 1.8.8 3.1h-3.3c-.1-.7-.2-1.2-.5-1.6-.3-.4-.7-.8-1.1-1s-.9-.4-1.5-.6c-.5-.1-1.1-.2-1.6-.2s-1 0-1.5.1-1 .2-1.4.4-.8.5-1 .8c-.3.3-.4.7-.4 1.3 0 .6.2 1 .6 1.4.4.4.9.7 1.5.9s1.3.5 2.1.6c.8.2 1.6.3 2.3.5.8.2 1.6.4 2.4.7.8.3 1.5.6 2.1 1 .6.4 1.1 1 1.5 1.6.4.7.6 1.5.6 2.4 0 1.2-.3 2.2-.8 3-.5.8-1.2 1.5-2 2s-1.7.8-2.8 1c-1 .2-2 .3-3.1.3s-2.2-.1-3.2-.4c-1-.2-1.9-.6-2.7-1.2-.8-.5-1.4-1.2-1.9-2.1-.5-.9-.7-1.9-.8-3.2h3.3c.1.9.3 1.5.6 2zm27.3-23.3h4.9V105h14.2v4.2h-19V81.4zm24.7 18.9c0 .8.1 1.5.3 2.3.2.7.6 1.4 1 1.9s1 1 1.7 1.3c.7.3 1.5.5 2.4.5 1.3 0 2.3-.3 3.1-.8.8-.6 1.4-1.4 1.8-2.5h4.2c-.2 1.1-.6 2.1-1.2 2.9-.6.9-1.3 1.6-2.1 2.2-.8.6-1.7 1-2.7 1.3s-2 .4-3.1.4c-1.6 0-3-.3-4.2-.8-1.2-.5-2.3-1.2-3.1-2.2-.8-.9-1.5-2.1-1.9-3.4-.4-1.3-.6-2.7-.6-4.3 0-1.4.2-2.8.7-4.1.5-1.3 1.1-2.4 1.9-3.4.8-1 1.9-1.7 3.1-2.3 1.2-.6 2.5-.9 4.1-.9 1.6 0 3 .3 4.3 1 1.3.7 2.3 1.5 3.1 2.6.8 1.1 1.4 2.3 1.8 3.8.4 1.4.5 2.9.3 4.4h-14.9zm10.4-2.9c-.1-.7-.2-1.4-.4-2s-.6-1.2-1-1.7-.9-.9-1.6-1.2c-.6-.3-1.3-.4-2-.4-.8 0-1.5.1-2.1.4-.6.3-1.2.7-1.6 1.1-.5.5-.8 1-1.1 1.7-.3.6-.4 1.4-.4 2.1h10.2zm7.4-16h4.4v10.3h.1c.3-.5.7-.9 1.1-1.3.4-.4.9-.7 1.5-1 .5-.3 1.1-.5 1.7-.6.6-.1 1.2-.2 1.7-.2 1.6 0 3 .3 4.2.8 1.2.6 2.2 1.3 2.9 2.3.8 1 1.4 2.1 1.8 3.4.4 1.3.6 2.7.6 4.2 0 1.4-.2 2.7-.5 3.9s-.9 2.4-1.6 3.4c-.7 1-1.6 1.8-2.7 2.3-1.1.6-2.4.9-3.9.9-.7 0-1.4 0-2-.1-.7-.1-1.3-.3-2-.5s-1.2-.6-1.7-1-.9-1-1.3-1.6h-.1v2.8h-4.2v-28zm15.5 17.8c0-.9-.1-1.8-.4-2.7s-.6-1.6-1.1-2.3c-.5-.7-1.1-1.2-1.8-1.6-.7-.4-1.5-.6-2.4-.6-1.9 0-3.3.7-4.2 2-1 1.3-1.4 3-1.4 5.2 0 1 .1 2 .4 2.8s.6 1.6 1.1 2.2 1.1 1.1 1.8 1.5c.7.4 1.5.5 2.4.5 1 0 1.9-.2 2.6-.6.7-.4 1.3-1 1.7-1.6.5-.7.8-1.4 1-2.3.2-.8.3-1.6.3-2.5zm7.7-10.1h4.2V93h.1c.1-.5.4-1.1.8-1.6s.8-1 1.4-1.4c.5-.4 1.1-.8 1.8-1 .6-.3 1.3-.4 2-.4h1.1c.2 0 .4.1.6.1V93c-.3-.1-.6-.1-1-.1s-.6-.1-1-.1c-.8 0-1.5.1-2.1.4s-1.2.7-1.7 1.3-.9 1.3-1.2 2.2c-.3.9-.4 1.8-.4 3v9.6h-4.4V89.1zm30.9 20.1h-4.4v-2.8h-.1c-.5 1-1.4 1.8-2.4 2.4-1.1.6-2.2.9-3.3.9-2.7 0-4.6-.7-5.8-2-1.2-1.3-1.8-3.3-1.8-5.9V89.1h4.4v12.4c0 1.8.3 3 1 3.7.7.7 1.6 1.1 2.8 1.1.9 0 1.7-.1 2.3-.4s1.1-.7 1.5-1.2c.4-.5.7-1.1.8-1.7.2-.7.3-1.4.3-2.2V89.1h4.4v20.1zm4.2-20.1h4.2v3l.1.1c.7-1.1 1.6-2 2.7-2.6 1.1-.6 2.3-1 3.6-1 2.2 0 4 .6 5.2 1.7 1.3 1.1 1.9 2.9 1.9 5.1v13.8h-4.4V96.6c-.1-1.6-.4-2.7-1-3.5-.6-.7-1.6-1.1-2.9-1.1-.8 0-1.4.1-2 .4-.6.3-1.1.7-1.5 1.1-.4.5-.7 1-1 1.7-.2.6-.4 1.3-.4 2.1v11.9h-4.4V89.1zM281 125.3v-3.7h3.1v3.7H281zm3.1 3.3v18.6H281v-18.6h3.1zm7.6 0v3h.1c1.3-2.3 3.3-3.4 6-3.4 1.2 0 2.2.2 3.1.5.8.3 1.5.8 2 1.4s.9 1.3 1.1 2.1c.2.8.3 1.7.3 2.8v12.2h-3.1v-12.6c0-1.2-.3-2.1-1-2.7s-1.6-1-2.8-1c-.9 0-1.7.1-2.4.4-.7.3-1.3.7-1.7 1.2-.5.5-.8 1.1-1 1.9-.2.7-.3 1.5-.3 2.3v10.5h-3.1v-18.6h2.8zm15.3 2.7v-2.7h3.1v-2.8c0-1.5.4-2.7 1.3-3.4s2.2-1.2 3.8-1.2c.3 0 .6 0 1 .1.4 0 .7.1 1 .2v2.7c-.3-.1-.6-.2-.9-.2-.3 0-.6-.1-.9-.1-.7 0-1.3.1-1.7.4-.4.3-.6.8-.6 1.7v2.6h3.6v2.7h-3.6v15.9H310v-15.9h-3zm12.1 2.8c.4-1.2 1-2.2 1.7-3.1.8-.9 1.7-1.6 2.8-2.1 1.1-.5 2.4-.8 3.9-.8s2.8.3 3.9.8 2.1 1.2 2.8 2.1c.8.9 1.3 1.9 1.7 3.1.4 1.2.6 2.5.6 3.8 0 1.4-.2 2.6-.6 3.8s-1 2.2-1.7 3.1c-.8.9-1.7 1.6-2.8 2.1-1.1.5-2.4.7-3.9.7s-2.8-.2-3.9-.7c-1.1-.5-2.1-1.2-2.8-2.1-.8-.9-1.3-1.9-1.7-3.1s-.6-2.4-.6-3.8c0-1.3.2-2.6.6-3.8zm3.1 6.9c.3.9.7 1.6 1.2 2.2.5.6 1.1 1 1.9 1.3s1.5.5 2.2.5 1.5-.2 2.2-.5 1.3-.8 1.9-1.3c.5-.6.9-1.3 1.2-2.2.3-.9.5-1.9.5-3s-.2-2.1-.5-3c-.3-.9-.7-1.6-1.2-2.2-.5-.6-1.1-1.1-1.9-1.4-.7-.3-1.5-.5-2.2-.5s-1.5.2-2.2.5c-.7.3-1.3.8-1.9 1.4-.5.6-.9 1.3-1.2 2.2-.3.9-.5 1.9-.5 3 .1 1.1.2 2.1.5 3zm32 11.5c-1.4 1.5-3.6 2.3-6.6 2.3-.9 0-1.7-.1-2.6-.3-.9-.2-1.7-.5-2.4-.9s-1.3-1-1.8-1.7-.7-1.5-.8-2.6h3.1c0 .6.2 1 .5 1.4.3.4.7.7 1.2.9s1 .4 1.5.5c.6.1 1.1.2 1.6.2 1 0 1.9-.2 2.6-.5.7-.3 1.3-.8 1.7-1.4s.8-1.3 1-2.2c.2-.9.3-1.8.3-2.8v-1.2h-.1c-.5 1.2-1.3 2-2.4 2.5-1.1.5-2.2.8-3.4.8-1.4 0-2.6-.3-3.6-.8s-1.9-1.2-2.6-2c-.7-.9-1.2-1.8-1.6-3-.3-1.1-.5-2.3-.5-3.6 0-1.1.1-2.2.4-3.4.3-1.2.8-2.2 1.4-3.2.7-.9 1.6-1.7 2.7-2.3 1.1-.6 2.5-.9 4.1-.9 1.2 0 2.3.3 3.2.8 1 .5 1.8 1.3 2.3 2.3v-2.7h2.9v17c-.1 3-.7 5.3-2.1 6.8zm-3.9-8.4c.7-.4 1.3-1 1.7-1.7.4-.7.8-1.5 1-2.3.2-.9.3-1.7.3-2.6 0-.8-.1-1.6-.3-2.4-.2-.8-.5-1.5-.9-2.1s-1-1.1-1.6-1.5c-.7-.4-1.5-.6-2.4-.6-1 0-1.8.2-2.5.6-.7.4-1.3.9-1.7 1.5-.4.6-.8 1.3-1 2.2-.2.8-.3 1.7-.3 2.6 0 .8.1 1.7.3 2.5s.5 1.6.9 2.3c.4.7.9 1.2 1.6 1.7.7.4 1.5.6 2.5.6s1.6-.3 2.4-.8zm13.3-15.5v3.9h.1c.7-1.5 1.7-2.6 2.7-3.3 1.1-.7 2.4-1.1 4.1-1v3.2c-1.2 0-2.3.2-3.1.5-.9.3-1.6.8-2.1 1.5-.5.6-.9 1.4-1.2 2.4-.2.9-.4 2-.4 3.2v8.3h-3.1v-18.6h3zm25.7 18.6c-.5.3-1.3.5-2.2.5-.8 0-1.4-.2-1.9-.7-.5-.4-.7-1.2-.7-2.2-.8 1-1.8 1.7-2.9 2.2-1.1.4-2.3.7-3.6.7-.8 0-1.6-.1-2.4-.3-.8-.2-1.4-.5-2-.9s-1-.9-1.3-1.6-.5-1.5-.5-2.4c0-1.1.2-1.9.5-2.6s.8-1.2 1.4-1.6 1.3-.7 2-1c.8-.2 1.5-.4 2.3-.5.8-.2 1.6-.3 2.4-.4s1.4-.2 2-.4 1-.4 1.4-.7c.3-.3.5-.7.5-1.3 0-.7-.1-1.2-.4-1.6-.3-.4-.6-.7-1-.9-.4-.2-.8-.4-1.3-.4s-1-.1-1.5-.1c-1.3 0-2.4.2-3.2.7-.9.5-1.3 1.4-1.4 2.8h-3.1c0-1.2.3-2.1.7-2.9.4-.8 1-1.4 1.7-1.9s1.5-.8 2.5-1.1c.9-.2 1.9-.3 3-.3.8 0 1.7.1 2.5.2s1.6.4 2.2.7c.7.4 1.2.9 1.6 1.6.4.7.6 1.5.6 2.6v9.6c0 .7 0 1.2.1 1.6.1.3.4.5.8.5.3 0 .6 0 .9-.1v2.2zm-4.9-9.6c-.4.3-.9.5-1.5.6-.6.1-1.3.2-2 .3l-2.1.3c-.7.1-1.3.3-1.9.5-.6.2-1 .6-1.4 1s-.5 1-.5 1.8c0 .5.1.9.3 1.3.2.3.5.6.8.8.3.2.7.4 1.1.5.4.1.9.1 1.4.1 1 0 1.9-.1 2.6-.4.7-.3 1.3-.6 1.8-1s.8-.9 1-1.4c.2-.5.3-.9.3-1.4v-3zm10.9-9v2.5h.1c.5-1 1.3-1.8 2.4-2.2 1.1-.5 2.3-.7 3.6-.7 1.4 0 2.7.3 3.8.8 1.1.5 2 1.2 2.7 2.1.7.9 1.2 1.9 1.6 3.1.4 1.2.5 2.4.5 3.7s-.2 2.6-.5 3.7c-.3 1.2-.9 2.2-1.6 3.1-.7.9-1.6 1.6-2.7 2.1s-2.3.8-3.7.8c-.5 0-1 0-1.5-.1-.6-.1-1.1-.3-1.7-.5-.6-.2-1.1-.5-1.6-.9s-.9-.8-1.2-1.4h-.1v9.6h-3.1v-25.7h3zm11 6.6c-.2-.8-.6-1.6-1-2.2s-1.1-1.2-1.8-1.5c-.7-.4-1.6-.6-2.6-.6s-1.9.2-2.6.6-1.3.9-1.8 1.6c-.5.7-.8 1.4-1 2.2s-.3 1.7-.3 2.6c0 .9.1 1.8.3 2.6.2.9.6 1.6 1 2.2.5.6 1.1 1.2 1.8 1.6.7.4 1.6.6 2.7.6s1.9-.2 2.6-.6 1.3-.9 1.7-1.6.7-1.4.9-2.3c.2-.9.3-1.8.3-2.7.2-.8.1-1.6-.2-2.5zm10.3-13.7v9.8h.1c.2-.6.6-1.1 1-1.5.4-.4.9-.7 1.5-1s1.1-.4 1.7-.6c.6-.1 1.2-.2 1.7-.2 1.2 0 2.2.2 3.1.5.8.3 1.5.8 2 1.4s.9 1.3 1.1 2.1c.2.8.3 1.7.3 2.8V147H426v-12.6c0-1.2-.3-2.1-1-2.7s-1.6-1-2.8-1c-.9 0-1.7.1-2.4.4-.7.3-1.3.7-1.7 1.2-.5.5-.8 1.1-1 1.9-.2.7-.3 1.5-.3 2.3V147h-3.1v-25.7h2.9zm17.1 3.8v-3.7h3.1v3.7h-3.1zm3.1 3.3v18.6h-3.1v-18.6h3.1zm7.1 14.5c.3.5.7.8 1.1 1.1.5.3 1 .5 1.6.6.6.1 1.2.2 1.8.2.5 0 1 0 1.5-.1s1-.2 1.5-.4c.4-.2.8-.5 1.1-.8.3-.4.4-.8.4-1.4 0-.8-.3-1.4-.9-1.8-.6-.4-1.4-.7-2.2-1-.9-.3-1.9-.5-2.9-.7-1.1-.2-2-.5-2.9-.9-.9-.4-1.7-.9-2.2-1.6-.6-.7-.9-1.6-.9-2.8 0-.9.2-1.7.6-2.4s1-1.2 1.6-1.6 1.4-.7 2.2-.9 1.6-.3 2.5-.3c1.1 0 2 .1 2.9.3.9.2 1.7.5 2.4.9s1.2 1 1.6 1.8.6 1.7.7 2.8h-3.1c0-.6-.2-1.1-.5-1.5-.3-.4-.6-.7-1-1s-.9-.4-1.3-.5c-.5-.1-1-.2-1.5-.2s-.9 0-1.4.1-.9.2-1.3.4-.7.4-.9.7c-.2.3-.4.7-.4 1.2s.2 1 .6 1.3.8.6 1.4.9c.6.2 1.2.4 1.9.6.7.2 1.4.3 2.2.5.8.2 1.5.4 2.2.6.7.2 1.4.6 1.9 1 .6.4 1 .9 1.4 1.5.3.6.5 1.3.5 2.2 0 1.1-.2 2.1-.7 2.8s-1.1 1.3-1.8 1.8-1.6.8-2.6 1c-.9.2-1.9.3-2.8.3-1 0-2-.1-3-.3-.9-.2-1.8-.6-2.5-1.1-.7-.5-1.3-1.1-1.7-1.9-.4-.8-.7-1.8-.7-2.9h3.1c0 .5.2 1 .5 1.5zm23.6-14.5v2.7h-3.7v11.6c0 .4 0 .6.1.9.1.2.2.4.3.5.2.1.4.2.7.2.3 0 .7.1 1.2.1h1.4v2.7h-2.3c-.8 0-1.5-.1-2-.2s-1-.3-1.4-.6c-.3-.3-.6-.7-.8-1.2s-.3-1.2-.3-2.1v-11.8h-3.2v-2.7h3.2v-5.6h3.1v5.6h3.7zm16.5 17.5c-1.4 1.1-3.1 1.6-5.3 1.6-1.5 0-2.8-.2-3.9-.7-1.1-.5-2-1.2-2.8-2-.7-.9-1.3-1.9-1.7-3.1-.4-1.2-.6-2.5-.6-3.9s.2-2.7.6-3.9c.4-1.2 1-2.2 1.8-3.1s1.7-1.5 2.8-2c1.1-.5 2.2-.7 3.5-.7 1.7 0 3 .3 4.1 1 1.1.7 2 1.6 2.6 2.6s1.1 2.2 1.4 3.5c.3 1.2.4 2.4.3 3.6h-13.9c0 .8.1 1.6.3 2.3s.6 1.4 1 1.9c.5.6 1.1 1 1.8 1.3.7.3 1.6.5 2.6.5 1.3 0 2.4-.3 3.2-.9.8-.6 1.4-1.5 1.6-2.7h3c-.1 2-1 3.6-2.4 4.7zm-.7-12c-.3-.6-.6-1.2-1.1-1.7s-1-.8-1.7-1.1c-.6-.3-1.3-.4-2.1-.4s-1.5.1-2.1.4c-.6.3-1.2.7-1.6 1.1-.5.5-.8 1-1.1 1.7-.3.6-.4 1.3-.5 2h10.7c-.1-.7-.2-1.3-.5-2z"/></g></svg>