<?xml version="1.0" encoding="utf-8"?>
<!-- Generator: Adobe Illustrator 16.0.0, SVG Export Plug-In . SVG Version: 6.00 Build 0)  -->
<!DOCTYPE svg PUBLIC "-//W3C//DTD SVG 1.0//EN" "http://www.w3.org/TR/2001/REC-SVG-20010904/DTD/svg10.dtd">
<svg version="1.0" id="Layer_1" xmlns="http://www.w3.org/2000/svg" xmlns:xlink="http://www.w3.org/1999/xlink" x="0px" y="0px"
	 width="591.9px" height="229.5px" viewBox="0 0 591.9 229.5" style="enable-background:new 0 0 591.9 229.5;" xml:space="preserve"
	>
<style type="text/css">
<![CDATA[
	.st0{clip-path:url(#SVGID_2_);}
	.st1{clip-path:url(#SVGID_4_);}
	.st2{fill:#FF0000;}
	.st3{fill:#FFFFFF;}
	.st4{fill:none;stroke:#000000;stroke-width:2.5;stroke-miterlimit:10;}
]]>
</style>
<g id="white">
	<g>
		<polygon points="150.9,147.4 55.6,98.4 55.6,133.4 150.9,182.4 		"/>
	</g>
	<g id="full_1_">
		<polygon points="268.6,98.4 173.2,49.4 173.2,84.4 268.6,133.4 		"/>
	</g>
	<g>
		<g id="full_2_">
			<polygon class="st3" points="268.6,133.1 173.2,182.1 173.2,147.1 268.6,98.1 			"/>
		</g>
		<g>
			<defs>
				<polygon id="SVGID_1_" points="173.2,147.1 268.6,98.1 268.6,133.1 173.2,182.1 				"/>
			</defs>
			<clipPath id="SVGID_2_">
				<use xlink:href="#SVGID_1_"  style="overflow:visible;"/>
			</clipPath>
			<g class="st0">
				<line class="st4" x1="150.6" y1="157.1" x2="185.2" y2="190.1"/>
				<line class="st4" x1="154.7" y1="154.5" x2="189.3" y2="187.5"/>
				<line class="st4" x1="158.8" y1="152" x2="193.4" y2="185"/>
				<line class="st4" x1="162.9" y1="149.4" x2="197.6" y2="182.4"/>
				<line class="st4" x1="167" y1="146.8" x2="201.7" y2="179.8"/>
				<line class="st4" x1="171.1" y1="144.2" x2="205.8" y2="177.2"/>
				<line class="st4" x1="175.2" y1="141.6" x2="209.9" y2="174.6"/>
				<line class="st4" x1="179.3" y1="139.1" x2="214" y2="172.1"/>
				<line class="st4" x1="183.4" y1="136.5" x2="218.1" y2="169.5"/>
				<line class="st4" x1="187.5" y1="133.9" x2="222.2" y2="166.9"/>
				<line class="st4" x1="191.6" y1="131.3" x2="226.3" y2="164.3"/>
				<line class="st4" x1="195.8" y1="128.7" x2="230.4" y2="161.7"/>
				<line class="st4" x1="199.9" y1="126.1" x2="234.5" y2="159.1"/>
				<line class="st4" x1="204" y1="123.6" x2="238.6" y2="156.6"/>
				<line class="st4" x1="208.1" y1="121" x2="242.7" y2="154"/>
				<line class="st4" x1="212.2" y1="118.4" x2="246.9" y2="151.4"/>
				<line class="st4" x1="216.3" y1="115.8" x2="251" y2="148.8"/>
				<line class="st4" x1="220.4" y1="113.2" x2="255.1" y2="146.2"/>
				<line class="st4" x1="224.5" y1="110.7" x2="259.2" y2="143.6"/>
				<line class="st4" x1="228.6" y1="108.1" x2="263.3" y2="141.1"/>
				<line class="st4" x1="232.7" y1="105.5" x2="267.4" y2="138.5"/>
				<line class="st4" x1="236.8" y1="102.9" x2="271.5" y2="135.9"/>
				<line class="st4" x1="241" y1="100.3" x2="275.6" y2="133.3"/>
				<line class="st4" x1="245.1" y1="97.7" x2="279.7" y2="130.7"/>
				<line class="st4" x1="249.2" y1="95.2" x2="283.8" y2="128.2"/>
				<line class="st4" x1="253.3" y1="92.6" x2="287.9" y2="125.6"/>
				<line class="st4" x1="257.4" y1="90" x2="292.1" y2="123"/>
			</g>
		</g>
	</g>
	<g>
		<g id="full_3_">
			<polygon class="st3" points="150.9,84.3 55.6,133.3 55.6,98.3 150.9,49.3 			"/>
		</g>
		<g>
			<defs>
				<polygon id="SVGID_3_" points="55.6,98.3 150.9,49.3 150.9,84.3 55.6,133.3 				"/>
			</defs>
			<clipPath id="SVGID_4_">
				<use xlink:href="#SVGID_3_"  style="overflow:visible;"/>
			</clipPath>
			<g class="st1">
				<line class="st4" x1="32.9" y1="108.4" x2="67.6" y2="141.4"/>
				<line class="st4" x1="37" y1="105.8" x2="71.7" y2="138.8"/>
				<line class="st4" x1="41.1" y1="103.2" x2="75.8" y2="136.2"/>
				<line class="st4" x1="45.2" y1="100.6" x2="79.9" y2="133.6"/>
				<line class="st4" x1="49.3" y1="98" x2="84" y2="131"/>
				<line class="st4" x1="53.4" y1="95.5" x2="88.1" y2="128.5"/>
				<line class="st4" x1="57.5" y1="92.9" x2="92.2" y2="125.9"/>
				<line class="st4" x1="61.7" y1="90.3" x2="96.3" y2="123.3"/>
				<line class="st4" x1="65.8" y1="87.7" x2="100.4" y2="120.7"/>
				<line class="st4" x1="69.9" y1="85.1" x2="104.5" y2="118.1"/>
				<line class="st4" x1="74" y1="82.6" x2="108.6" y2="115.6"/>
				<line class="st4" x1="78.1" y1="80" x2="112.8" y2="113"/>
				<line class="st4" x1="82.2" y1="77.4" x2="116.9" y2="110.4"/>
				<line class="st4" x1="86.3" y1="74.8" x2="121" y2="107.8"/>
				<line class="st4" x1="90.4" y1="72.2" x2="125.1" y2="105.2"/>
				<line class="st4" x1="94.5" y1="69.6" x2="129.2" y2="102.6"/>
				<line class="st4" x1="98.6" y1="67.1" x2="133.3" y2="100.1"/>
				<line class="st4" x1="102.7" y1="64.5" x2="137.4" y2="97.5"/>
				<line class="st4" x1="106.9" y1="61.9" x2="141.5" y2="94.9"/>
				<line class="st4" x1="111" y1="59.3" x2="145.6" y2="92.3"/>
				<line class="st4" x1="115.1" y1="56.7" x2="149.7" y2="89.7"/>
				<line class="st4" x1="119.2" y1="54.2" x2="153.8" y2="87.2"/>
				<line class="st4" x1="123.3" y1="51.6" x2="158" y2="84.6"/>
				<line class="st4" x1="127.4" y1="49" x2="162.1" y2="82"/>
				<line class="st4" x1="131.5" y1="46.4" x2="166.2" y2="79.4"/>
				<line class="st4" x1="135.6" y1="43.8" x2="170.3" y2="76.8"/>
				<line class="st4" x1="139.7" y1="41.2" x2="174.4" y2="74.2"/>
			</g>
		</g>
	</g>
	<g>
		<path d="M285.5,81.4l14.7,22.6h0.1V81.4h3.5v27.8h-4.1l-14.5-22.3h-0.1v22.3h-3.5V81.4H285.5z"/>
		<path d="M308.9,85.5v-4.1h3.3v4.1H308.9z M312.2,89.1v20.2h-3.3V89.1H312.2z"/>
		<path d="M328.9,92.6c-0.8-0.7-2-1.1-3.4-1.1c-1.2,0-2.2,0.2-3,0.7c-0.8,0.4-1.5,1-1.9,1.8c-0.5,0.7-0.8,1.6-1,2.5
			c-0.2,0.9-0.3,1.9-0.3,2.9c0,0.9,0.1,1.8,0.3,2.7s0.6,1.7,1,2.4c0.5,0.7,1.1,1.2,1.8,1.7c0.8,0.4,1.7,0.6,2.7,0.6
			c1.6,0,2.9-0.4,3.8-1.3s1.5-2.1,1.7-3.6h3.4c-0.4,2.5-1.3,4.4-2.8,5.8c-1.5,1.4-3.5,2-6.1,2c-1.5,0-2.9-0.2-4.1-0.7
			c-1.2-0.5-2.2-1.2-3-2.1c-0.8-0.9-1.4-2-1.8-3.3c-0.4-1.3-0.6-2.6-0.6-4.2s0.2-2.9,0.6-4.2c0.4-1.3,1-2.5,1.8-3.4
			c0.8-1,1.8-1.7,3-2.3c1.2-0.6,2.6-0.8,4.2-0.8c1.1,0,2.2,0.1,3.2,0.4c1,0.3,1.9,0.7,2.7,1.3c0.8,0.6,1.4,1.3,1.9,2.2
			s0.8,1.9,0.9,3.1h-3.4C330.3,94.3,329.7,93.3,328.9,92.6z"/>
		<path d="M336.8,95c0.4-1.3,1-2.4,1.9-3.4c0.8-0.9,1.9-1.7,3.1-2.2c1.2-0.5,2.6-0.8,4.2-0.8c1.6,0,3,0.3,4.2,0.8
			c1.2,0.5,2.2,1.3,3.1,2.2c0.8,0.9,1.5,2.1,1.9,3.4c0.4,1.3,0.6,2.7,0.6,4.2c0,1.5-0.2,2.9-0.6,4.1c-0.4,1.3-1,2.4-1.9,3.3
			c-0.8,0.9-1.9,1.7-3.1,2.2c-1.2,0.5-2.6,0.8-4.2,0.8c-1.6,0-3-0.3-4.2-0.8c-1.2-0.5-2.2-1.3-3.1-2.2c-0.8-0.9-1.5-2.1-1.9-3.3
			c-0.4-1.3-0.6-2.7-0.6-4.1C336.2,97.7,336.4,96.3,336.8,95z M340.2,102.4c0.3,1,0.8,1.7,1.3,2.4c0.6,0.6,1.2,1.1,2,1.5
			c0.8,0.3,1.6,0.5,2.4,0.5c0.9,0,1.7-0.2,2.4-0.5c0.8-0.3,1.4-0.8,2-1.5c0.6-0.6,1-1.4,1.3-2.4c0.3-0.9,0.5-2,0.5-3.3
			c0-1.2-0.2-2.3-0.5-3.3s-0.8-1.7-1.3-2.4s-1.2-1.1-2-1.5c-0.8-0.3-1.6-0.5-2.4-0.5c-0.9,0-1.7,0.2-2.4,0.5c-0.8,0.3-1.4,0.8-2,1.5
			c-0.6,0.7-1,1.4-1.3,2.4s-0.5,2-0.5,3.3C339.7,100.4,339.9,101.5,340.2,102.4z"/>
		<path d="M362.7,81.4v27.8h-3.3V81.4H362.7z"/>
		<path d="M385.2,109.2c-0.6,0.3-1.4,0.5-2.4,0.5c-0.9,0-1.5-0.2-2-0.7c-0.5-0.5-0.8-1.3-0.8-2.4c-0.9,1.1-2,1.9-3.2,2.4
			c-1.2,0.5-2.5,0.7-3.9,0.7c-0.9,0-1.8-0.1-2.6-0.3c-0.8-0.2-1.5-0.5-2.1-1c-0.6-0.4-1.1-1-1.4-1.7c-0.4-0.7-0.5-1.6-0.5-2.6
			c0-1.1,0.2-2.1,0.6-2.8c0.4-0.7,0.9-1.3,1.5-1.8s1.4-0.8,2.2-1c0.8-0.2,1.7-0.4,2.5-0.6c0.9-0.2,1.8-0.3,2.6-0.4
			c0.8-0.1,1.5-0.2,2.2-0.4c0.6-0.2,1.1-0.4,1.5-0.7s0.5-0.8,0.5-1.4c0-0.7-0.1-1.3-0.4-1.8c-0.3-0.4-0.6-0.8-1.1-1
			c-0.4-0.2-0.9-0.4-1.4-0.5c-0.5-0.1-1.1-0.1-1.6-0.1c-1.4,0-2.6,0.3-3.5,0.8c-0.9,0.5-1.4,1.5-1.5,3H367c0.1-1.2,0.3-2.3,0.8-3.2
			s1.1-1.6,1.9-2.1s1.7-0.9,2.7-1.2c1-0.2,2.1-0.4,3.2-0.4c0.9,0,1.8,0.1,2.7,0.2c0.9,0.1,1.7,0.4,2.4,0.8c0.7,0.4,1.3,1,1.8,1.7
			c0.4,0.7,0.7,1.7,0.7,2.8v10.4c0,0.8,0,1.3,0.1,1.7c0.1,0.4,0.4,0.5,0.9,0.5c0.3,0,0.6-0.1,1-0.2V109.2z M379.8,98.8
			c-0.4,0.3-1,0.5-1.6,0.7c-0.7,0.1-1.4,0.3-2.1,0.3c-0.7,0.1-1.5,0.2-2.2,0.3c-0.8,0.1-1.4,0.3-2,0.6c-0.6,0.3-1.1,0.6-1.5,1.1
			s-0.6,1.1-0.6,2c0,0.5,0.1,1,0.3,1.4c0.2,0.4,0.5,0.7,0.9,0.9s0.8,0.4,1.2,0.5s1,0.2,1.5,0.2c1.1,0,2-0.1,2.8-0.4
			c0.8-0.3,1.4-0.7,1.9-1.1c0.5-0.5,0.9-0.9,1.1-1.5c0.2-0.5,0.4-1,0.4-1.5V98.8z"/>
		<path d="M390.3,104.7c0.3,0.5,0.7,0.9,1.2,1.2s1.1,0.5,1.7,0.6c0.6,0.1,1.3,0.2,2,0.2c0.5,0,1.1,0,1.6-0.1
			c0.6-0.1,1.1-0.2,1.6-0.4s0.9-0.5,1.2-0.9c0.3-0.4,0.5-0.9,0.5-1.5c0-0.9-0.3-1.5-1-2c-0.7-0.4-1.5-0.8-2.4-1.1
			c-1-0.3-2-0.5-3.2-0.7c-1.1-0.2-2.2-0.5-3.2-0.9c-1-0.4-1.8-1-2.4-1.7c-0.7-0.7-1-1.7-1-3c0-1,0.2-1.9,0.7-2.6
			c0.5-0.7,1-1.3,1.8-1.8s1.5-0.8,2.4-1c0.9-0.2,1.8-0.3,2.7-0.3c1.1,0,2.2,0.1,3.2,0.3c1,0.2,1.8,0.5,2.6,1
			c0.7,0.5,1.3,1.1,1.8,1.9c0.4,0.8,0.7,1.8,0.8,3.1h-3.3c-0.1-0.7-0.2-1.2-0.5-1.6c-0.3-0.4-0.7-0.8-1.1-1s-0.9-0.4-1.5-0.6
			c-0.5-0.1-1.1-0.2-1.6-0.2c-0.5,0-1,0-1.5,0.1c-0.5,0.1-1,0.2-1.4,0.4s-0.8,0.5-1,0.8c-0.3,0.3-0.4,0.7-0.4,1.3
			c0,0.6,0.2,1,0.6,1.4c0.4,0.4,0.9,0.7,1.5,0.9s1.3,0.5,2.1,0.6c0.8,0.2,1.6,0.3,2.3,0.5c0.8,0.2,1.6,0.4,2.4,0.7
			c0.8,0.3,1.5,0.6,2.1,1c0.6,0.4,1.1,1,1.5,1.6c0.4,0.7,0.6,1.5,0.6,2.4c0,1.2-0.3,2.2-0.8,3c-0.5,0.8-1.2,1.5-2,2
			c-0.8,0.5-1.7,0.8-2.8,1c-1,0.2-2,0.3-3.1,0.3c-1.1,0-2.2-0.1-3.2-0.4c-1-0.2-1.9-0.6-2.7-1.2c-0.8-0.5-1.4-1.2-1.9-2.1
			c-0.5-0.9-0.7-1.9-0.8-3.2h3.3C389.8,103.6,390,104.2,390.3,104.7z"/>
		<path d="M417.6,81.4h4.9V105h14.2v4.2h-19V81.4z"/>
		<path d="M442.3,100.3c0,0.8,0.1,1.5,0.3,2.3c0.2,0.7,0.6,1.4,1,1.9c0.4,0.5,1,1,1.7,1.3c0.7,0.3,1.5,0.5,2.4,0.5
			c1.3,0,2.3-0.3,3.1-0.8c0.8-0.6,1.4-1.4,1.8-2.5h4.2c-0.2,1.1-0.6,2.1-1.2,2.9c-0.6,0.9-1.3,1.6-2.1,2.2c-0.8,0.6-1.7,1-2.7,1.3
			s-2,0.4-3.1,0.4c-1.6,0-3-0.3-4.2-0.8c-1.2-0.5-2.3-1.2-3.1-2.2c-0.8-0.9-1.5-2.1-1.9-3.4c-0.4-1.3-0.6-2.7-0.6-4.3
			c0-1.4,0.2-2.8,0.7-4.1c0.5-1.3,1.1-2.4,1.9-3.4c0.8-1,1.9-1.7,3.1-2.3c1.2-0.6,2.5-0.9,4.1-0.9c1.6,0,3,0.3,4.3,1
			c1.3,0.7,2.3,1.5,3.1,2.6c0.8,1.1,1.4,2.3,1.8,3.8c0.4,1.4,0.5,2.9,0.3,4.4H442.3z M452.7,97.4c-0.1-0.7-0.2-1.4-0.4-2
			s-0.6-1.2-1-1.7c-0.4-0.5-0.9-0.9-1.6-1.2c-0.6-0.3-1.3-0.4-2-0.4c-0.8,0-1.5,0.1-2.1,0.4c-0.6,0.3-1.2,0.7-1.6,1.1
			c-0.5,0.5-0.8,1-1.1,1.7c-0.3,0.6-0.4,1.4-0.4,2.1H452.7z"/>
		<path d="M460.1,81.4h4.4v10.3h0.1c0.3-0.5,0.7-0.9,1.1-1.3c0.4-0.4,0.9-0.7,1.5-1c0.5-0.3,1.1-0.5,1.7-0.6
			c0.6-0.1,1.2-0.2,1.7-0.2c1.6,0,3,0.3,4.2,0.8c1.2,0.6,2.2,1.3,2.9,2.3c0.8,1,1.4,2.1,1.8,3.4c0.4,1.3,0.6,2.7,0.6,4.2
			c0,1.4-0.2,2.7-0.5,3.9s-0.9,2.4-1.6,3.4c-0.7,1-1.6,1.8-2.7,2.3c-1.1,0.6-2.4,0.9-3.9,0.9c-0.7,0-1.4,0-2-0.1
			c-0.7-0.1-1.3-0.3-2-0.5s-1.2-0.6-1.7-1s-0.9-1-1.3-1.6h-0.1v2.8h-4.2V81.4z M475.6,99.2c0-0.9-0.1-1.8-0.4-2.7s-0.6-1.6-1.1-2.3
			c-0.5-0.7-1.1-1.2-1.8-1.6c-0.7-0.4-1.5-0.6-2.4-0.6c-1.9,0-3.3,0.7-4.2,2c-1,1.3-1.4,3-1.4,5.2c0,1,0.1,2,0.4,2.8
			s0.6,1.6,1.1,2.2s1.1,1.1,1.8,1.5c0.7,0.4,1.5,0.5,2.4,0.5c1,0,1.9-0.2,2.6-0.6c0.7-0.4,1.3-1,1.7-1.6c0.5-0.7,0.8-1.4,1-2.3
			C475.5,100.9,475.6,100.1,475.6,99.2z"/>
		<path d="M483.3,89.1h4.2V93h0.1c0.1-0.5,0.4-1.1,0.8-1.6c0.4-0.5,0.8-1,1.4-1.4c0.5-0.4,1.1-0.8,1.8-1c0.6-0.3,1.3-0.4,2-0.4
			c0.5,0,0.9,0,1.1,0c0.2,0,0.4,0.1,0.6,0.1v4.3c-0.3-0.1-0.6-0.1-1-0.1s-0.6-0.1-1-0.1c-0.8,0-1.5,0.1-2.1,0.4s-1.2,0.7-1.7,1.3
			s-0.9,1.3-1.2,2.2c-0.3,0.9-0.4,1.8-0.4,3v9.6h-4.4V89.1z"/>
		<path d="M514.2,109.2h-4.4v-2.8h-0.1c-0.5,1-1.4,1.8-2.4,2.4c-1.1,0.6-2.2,0.9-3.3,0.9c-2.7,0-4.6-0.7-5.8-2
			c-1.2-1.3-1.8-3.3-1.8-5.9V89.1h4.4v12.4c0,1.8,0.3,3,1,3.7c0.7,0.7,1.6,1.1,2.8,1.1c0.9,0,1.7-0.1,2.3-0.4s1.1-0.7,1.5-1.2
			c0.4-0.5,0.7-1.1,0.8-1.7c0.2-0.7,0.3-1.4,0.3-2.2V89.1h4.4V109.2z"/>
		<path d="M518.4,89.1h4.2v3l0.1,0.1c0.7-1.1,1.6-2,2.7-2.6c1.1-0.6,2.3-1,3.6-1c2.2,0,4,0.6,5.2,1.7c1.3,1.1,1.9,2.9,1.9,5.1v13.8
			h-4.4V96.6c-0.1-1.6-0.4-2.7-1-3.5c-0.6-0.7-1.6-1.1-2.9-1.1c-0.8,0-1.4,0.1-2,0.4c-0.6,0.3-1.1,0.7-1.5,1.1c-0.4,0.5-0.7,1-1,1.7
			c-0.2,0.6-0.4,1.3-0.4,2.1v11.9h-4.4V89.1z"/>
		<path d="M281,125.3v-3.7h3.1v3.7H281z M284.1,128.6v18.6H281v-18.6H284.1z"/>
		<path d="M291.7,128.6v3h0.1c1.3-2.3,3.3-3.4,6-3.4c1.2,0,2.2,0.2,3.1,0.5c0.8,0.3,1.5,0.8,2,1.4s0.9,1.3,1.1,2.1
			c0.2,0.8,0.3,1.7,0.3,2.8v12.2h-3.1v-12.6c0-1.2-0.3-2.1-1-2.7s-1.6-1-2.8-1c-0.9,0-1.7,0.1-2.4,0.4c-0.7,0.3-1.3,0.7-1.7,1.2
			c-0.5,0.5-0.8,1.1-1,1.9c-0.2,0.7-0.3,1.5-0.3,2.3v10.5h-3.1v-18.6H291.7z"/>
		<path d="M307,131.3v-2.7h3.1v-2.8c0-1.5,0.4-2.7,1.3-3.4s2.2-1.2,3.8-1.2c0.3,0,0.6,0,1,0.1c0.4,0,0.7,0.1,1,0.2v2.7
			c-0.3-0.1-0.6-0.2-0.9-0.2c-0.3,0-0.6-0.1-0.9-0.1c-0.7,0-1.3,0.1-1.7,0.4c-0.4,0.3-0.6,0.8-0.6,1.7v2.6h3.6v2.7h-3.6v15.9h-3.1
			v-15.9H307z"/>
		<path d="M319.1,134.1c0.4-1.2,1-2.2,1.7-3.1c0.8-0.9,1.7-1.6,2.8-2.1c1.1-0.5,2.4-0.8,3.9-0.8c1.5,0,2.8,0.3,3.9,0.8
			c1.1,0.5,2.1,1.2,2.8,2.1c0.8,0.9,1.3,1.9,1.7,3.1c0.4,1.2,0.6,2.5,0.6,3.8c0,1.4-0.2,2.6-0.6,3.8s-1,2.2-1.7,3.1
			c-0.8,0.9-1.7,1.6-2.8,2.1c-1.1,0.5-2.4,0.7-3.9,0.7c-1.5,0-2.8-0.2-3.9-0.7c-1.1-0.5-2.1-1.2-2.8-2.1c-0.8-0.9-1.3-1.9-1.7-3.1
			s-0.6-2.4-0.6-3.8C318.5,136.6,318.7,135.3,319.1,134.1z M322.2,141c0.3,0.9,0.7,1.6,1.2,2.2c0.5,0.6,1.1,1,1.9,1.3
			s1.5,0.5,2.2,0.5s1.5-0.2,2.2-0.5s1.3-0.8,1.9-1.3c0.5-0.6,0.9-1.3,1.2-2.2c0.3-0.9,0.5-1.9,0.5-3c0-1.1-0.2-2.1-0.5-3
			c-0.3-0.9-0.7-1.6-1.2-2.2c-0.5-0.6-1.1-1.1-1.9-1.4c-0.7-0.3-1.5-0.5-2.2-0.5s-1.5,0.2-2.2,0.5c-0.7,0.3-1.3,0.8-1.9,1.4
			c-0.5,0.6-0.9,1.3-1.2,2.2c-0.3,0.9-0.5,1.9-0.5,3C321.8,139.1,321.9,140.1,322.2,141z"/>
		<path d="M354.2,152.5c-1.4,1.5-3.6,2.3-6.6,2.3c-0.9,0-1.7-0.1-2.6-0.3c-0.9-0.2-1.7-0.5-2.4-0.9c-0.7-0.4-1.3-1-1.8-1.7
			s-0.7-1.5-0.8-2.6h3.1c0,0.6,0.2,1,0.5,1.4c0.3,0.4,0.7,0.7,1.2,0.9s1,0.4,1.5,0.5c0.6,0.1,1.1,0.2,1.6,0.2c1,0,1.9-0.2,2.6-0.5
			c0.7-0.3,1.3-0.8,1.7-1.4s0.8-1.3,1-2.2c0.2-0.9,0.3-1.8,0.3-2.8v-1.2h-0.1c-0.5,1.2-1.3,2-2.4,2.5c-1.1,0.5-2.2,0.8-3.4,0.8
			c-1.4,0-2.6-0.3-3.6-0.8s-1.9-1.2-2.6-2c-0.7-0.9-1.2-1.8-1.6-3c-0.3-1.1-0.5-2.3-0.5-3.6c0-1.1,0.1-2.2,0.4-3.4
			c0.3-1.2,0.8-2.2,1.4-3.2c0.7-0.9,1.6-1.7,2.7-2.3c1.1-0.6,2.5-0.9,4.1-0.9c1.2,0,2.3,0.3,3.2,0.8c1,0.5,1.8,1.3,2.3,2.3h0v-2.7
			h2.9v17C356.2,148.7,355.6,151,354.2,152.5z M350.3,144.1c0.7-0.4,1.3-1,1.7-1.7c0.4-0.7,0.8-1.5,1-2.3c0.2-0.9,0.3-1.7,0.3-2.6
			c0-0.8-0.1-1.6-0.3-2.4c-0.2-0.8-0.5-1.5-0.9-2.1s-1-1.1-1.6-1.5c-0.7-0.4-1.5-0.6-2.4-0.6c-1,0-1.8,0.2-2.5,0.6
			c-0.7,0.4-1.3,0.9-1.7,1.5c-0.4,0.6-0.8,1.3-1,2.2c-0.2,0.8-0.3,1.7-0.3,2.6c0,0.8,0.1,1.7,0.3,2.5s0.5,1.6,0.9,2.3
			c0.4,0.7,0.9,1.2,1.6,1.7c0.7,0.4,1.5,0.6,2.5,0.6S349.5,144.6,350.3,144.1z"/>
		<path d="M363.6,128.6v3.9h0.1c0.7-1.5,1.7-2.6,2.7-3.3c1.1-0.7,2.4-1.1,4.1-1v3.2c-1.2,0-2.3,0.2-3.1,0.5
			c-0.9,0.3-1.6,0.8-2.1,1.5c-0.5,0.6-0.9,1.4-1.2,2.4c-0.2,0.9-0.4,2-0.4,3.2v8.3h-3.1v-18.6H363.6z"/>
		<path d="M389.3,147.2c-0.5,0.3-1.3,0.5-2.2,0.5c-0.8,0-1.4-0.2-1.9-0.7c-0.5-0.4-0.7-1.2-0.7-2.2c-0.8,1-1.8,1.7-2.9,2.2
			c-1.1,0.4-2.3,0.7-3.6,0.7c-0.8,0-1.6-0.1-2.4-0.3c-0.8-0.2-1.4-0.5-2-0.9s-1-0.9-1.3-1.6s-0.5-1.5-0.5-2.4c0-1.1,0.2-1.9,0.5-2.6
			s0.8-1.2,1.4-1.6s1.3-0.7,2-1c0.8-0.2,1.5-0.4,2.3-0.5c0.8-0.2,1.6-0.3,2.4-0.4s1.4-0.2,2-0.4s1-0.4,1.4-0.7
			c0.3-0.3,0.5-0.7,0.5-1.3c0-0.7-0.1-1.2-0.4-1.6c-0.3-0.4-0.6-0.7-1-0.9c-0.4-0.2-0.8-0.4-1.3-0.4s-1-0.1-1.5-0.1
			c-1.3,0-2.4,0.2-3.2,0.7c-0.9,0.5-1.3,1.4-1.4,2.8h-3.1c0-1.2,0.3-2.1,0.7-2.9c0.4-0.8,1-1.4,1.7-1.9s1.5-0.8,2.5-1.1
			c0.9-0.2,1.9-0.3,3-0.3c0.8,0,1.7,0.1,2.5,0.2c0.8,0.1,1.6,0.4,2.2,0.7c0.7,0.4,1.2,0.9,1.6,1.6c0.4,0.7,0.6,1.5,0.6,2.6v9.6
			c0,0.7,0,1.2,0.1,1.6c0.1,0.3,0.4,0.5,0.8,0.5c0.3,0,0.6,0,0.9-0.1V147.2z M384.4,137.6c-0.4,0.3-0.9,0.5-1.5,0.6
			c-0.6,0.1-1.3,0.2-2,0.3c-0.7,0.1-1.4,0.2-2.1,0.3c-0.7,0.1-1.3,0.3-1.9,0.5c-0.6,0.2-1,0.6-1.4,1s-0.5,1-0.5,1.8
			c0,0.5,0.1,0.9,0.3,1.3c0.2,0.3,0.5,0.6,0.8,0.8c0.3,0.2,0.7,0.4,1.1,0.5c0.4,0.1,0.9,0.1,1.4,0.1c1,0,1.9-0.1,2.6-0.4
			c0.7-0.3,1.3-0.6,1.8-1c0.5-0.4,0.8-0.9,1-1.4c0.2-0.5,0.3-0.9,0.3-1.4V137.6z"/>
		<path d="M395.3,128.6v2.5h0.1c0.5-1,1.3-1.8,2.4-2.2c1.1-0.5,2.3-0.7,3.6-0.7c1.4,0,2.7,0.3,3.8,0.8c1.1,0.5,2,1.2,2.7,2.1
			c0.7,0.9,1.2,1.9,1.6,3.1c0.4,1.2,0.5,2.4,0.5,3.7s-0.2,2.6-0.5,3.7c-0.3,1.2-0.9,2.2-1.6,3.1c-0.7,0.9-1.6,1.6-2.7,2.1
			c-1.1,0.5-2.3,0.8-3.7,0.8c-0.5,0-1,0-1.5-0.1c-0.6-0.1-1.1-0.3-1.7-0.5c-0.6-0.2-1.1-0.5-1.6-0.9c-0.5-0.4-0.9-0.8-1.2-1.4h-0.1
			v9.6h-3.1v-25.7H395.3z M406.3,135.2c-0.2-0.8-0.6-1.6-1-2.2s-1.1-1.2-1.8-1.5c-0.7-0.4-1.6-0.6-2.6-0.6c-1,0-1.9,0.2-2.6,0.6
			s-1.3,0.9-1.8,1.6c-0.5,0.7-0.8,1.4-1,2.2s-0.3,1.7-0.3,2.6c0,0.9,0.1,1.8,0.3,2.6c0.2,0.9,0.6,1.6,1,2.2c0.5,0.6,1.1,1.2,1.8,1.6
			c0.7,0.4,1.6,0.6,2.7,0.6c1.1,0,1.9-0.2,2.6-0.6s1.3-0.9,1.7-1.6s0.7-1.4,0.9-2.3c0.2-0.9,0.3-1.8,0.3-2.7
			C406.7,136.9,406.6,136.1,406.3,135.2z"/>
		<path d="M416.6,121.5v9.8h0.1c0.2-0.6,0.6-1.1,1-1.5c0.4-0.4,0.9-0.7,1.5-1s1.1-0.4,1.7-0.6c0.6-0.1,1.2-0.2,1.7-0.2
			c1.2,0,2.2,0.2,3.1,0.5c0.8,0.3,1.5,0.8,2,1.4s0.9,1.3,1.1,2.1c0.2,0.8,0.3,1.7,0.3,2.8v12.2h-3.1v-12.6c0-1.2-0.3-2.1-1-2.7
			s-1.6-1-2.8-1c-0.9,0-1.7,0.1-2.4,0.4c-0.7,0.3-1.3,0.7-1.7,1.2c-0.5,0.5-0.8,1.1-1,1.9c-0.2,0.7-0.3,1.5-0.3,2.3v10.5h-3.1v-25.7
			H416.6z"/>
		<path d="M433.7,125.3v-3.7h3.1v3.7H433.7z M436.8,128.6v18.6h-3.1v-18.6H436.8z"/>
		<path d="M443.9,143.1c0.3,0.5,0.7,0.8,1.1,1.1c0.5,0.3,1,0.5,1.6,0.6c0.6,0.1,1.2,0.2,1.8,0.2c0.5,0,1,0,1.5-0.1
			c0.5-0.1,1-0.2,1.5-0.4c0.4-0.2,0.8-0.5,1.1-0.8c0.3-0.4,0.4-0.8,0.4-1.4c0-0.8-0.3-1.4-0.9-1.8c-0.6-0.4-1.4-0.7-2.2-1
			c-0.9-0.3-1.9-0.5-2.9-0.7c-1.1-0.2-2-0.5-2.9-0.9c-0.9-0.4-1.7-0.9-2.2-1.6c-0.6-0.7-0.9-1.6-0.9-2.8c0-0.9,0.2-1.7,0.6-2.4
			s1-1.2,1.6-1.6s1.4-0.7,2.2-0.9s1.6-0.3,2.5-0.3c1.1,0,2,0.1,2.9,0.3c0.9,0.2,1.7,0.5,2.4,0.9c0.7,0.4,1.2,1,1.6,1.8
			s0.6,1.7,0.7,2.8h-3.1c0-0.6-0.2-1.1-0.5-1.5c-0.3-0.4-0.6-0.7-1-1s-0.9-0.4-1.3-0.5c-0.5-0.1-1-0.2-1.5-0.2c-0.5,0-0.9,0-1.4,0.1
			s-0.9,0.2-1.3,0.4c-0.4,0.2-0.7,0.4-0.9,0.7c-0.2,0.3-0.4,0.7-0.4,1.2c0,0.5,0.2,1,0.6,1.3s0.8,0.6,1.4,0.9
			c0.6,0.2,1.2,0.4,1.9,0.6c0.7,0.2,1.4,0.3,2.2,0.5c0.8,0.2,1.5,0.4,2.2,0.6c0.7,0.2,1.4,0.6,1.9,1c0.6,0.4,1,0.9,1.4,1.5
			c0.3,0.6,0.5,1.3,0.5,2.2c0,1.1-0.2,2.1-0.7,2.8s-1.1,1.3-1.8,1.8s-1.6,0.8-2.6,1c-0.9,0.2-1.9,0.3-2.8,0.3c-1,0-2-0.1-3-0.3
			c-0.9-0.2-1.8-0.6-2.5-1.1c-0.7-0.5-1.3-1.1-1.7-1.9c-0.4-0.8-0.7-1.8-0.7-2.9h3.1C443.4,142.1,443.6,142.6,443.9,143.1z"/>
		<path d="M467.5,128.6v2.7h-3.7v11.6c0,0.4,0,0.6,0.1,0.9c0.1,0.2,0.2,0.4,0.3,0.5c0.2,0.1,0.4,0.2,0.7,0.2c0.3,0,0.7,0.1,1.2,0.1
			h1.4v2.7h-2.3c-0.8,0-1.5-0.1-2-0.2s-1-0.3-1.4-0.6c-0.3-0.3-0.6-0.7-0.8-1.2s-0.3-1.2-0.3-2.1v-11.8h-3.2v-2.7h3.2v-5.6h3.1v5.6
			H467.5z"/>
		<path d="M484,146.1c-1.4,1.1-3.1,1.6-5.3,1.6c-1.5,0-2.8-0.2-3.9-0.7c-1.1-0.5-2-1.2-2.8-2c-0.7-0.9-1.3-1.9-1.7-3.1
			c-0.4-1.2-0.6-2.5-0.6-3.9c0-1.4,0.2-2.7,0.6-3.9c0.4-1.2,1-2.2,1.8-3.1s1.7-1.5,2.8-2c1.1-0.5,2.2-0.7,3.5-0.7c1.7,0,3,0.3,4.1,1
			c1.1,0.7,2,1.6,2.6,2.6s1.1,2.2,1.4,3.5c0.3,1.2,0.4,2.4,0.3,3.6h-13.9c0,0.8,0.1,1.6,0.3,2.3s0.6,1.4,1,1.9
			c0.5,0.6,1.1,1,1.8,1.3c0.7,0.3,1.6,0.5,2.6,0.5c1.3,0,2.4-0.3,3.2-0.9c0.8-0.6,1.4-1.5,1.6-2.7h3
			C486.3,143.4,485.4,145,484,146.1z M483.3,134.1c-0.3-0.6-0.6-1.2-1.1-1.7s-1-0.8-1.7-1.1c-0.6-0.3-1.3-0.4-2.1-0.4
			c-0.8,0-1.5,0.1-2.1,0.4c-0.6,0.3-1.2,0.7-1.6,1.1c-0.5,0.5-0.8,1-1.1,1.7c-0.3,0.6-0.4,1.3-0.5,2h10.7
			C483.7,135.4,483.6,134.8,483.3,134.1z"/>
	</g>
</g>
</svg>
