<?xml version="1.0" encoding="utf-8"?>
<!-- Generator: Adobe Illustrator 16.0.0, SVG Export Plug-In . SVG Version: 6.00 Build 0)  -->
<!DOCTYPE svg PUBLIC "-//W3C//DTD SVG 1.0//EN" "http://www.w3.org/TR/2001/REC-SVG-20010904/DTD/svg10.dtd">
<svg version="1.0" id="Layer_1" xmlns="http://www.w3.org/2000/svg" xmlns:xlink="http://www.w3.org/1999/xlink" x="0px" y="0px"
	 width="591.9px" height="229.5px" viewBox="0 0 591.9 229.5" style="enable-background:new 0 0 591.9 229.5;" xml:space="preserve"
	>
<style type="text/css">
<![CDATA[
	.st0{clip-path:url(#SVGID_2_);}
	.st1{clip-path:url(#SVGID_4_);}
	.st2{fill:#FFFFFF;}
	.st3{fill:none;stroke:#000000;stroke-width:2.5;stroke-miterlimit:10;}
]]>
</style>
<g id="black">
	<polygon class="st2" points="150.9,147.4 89.8,116 55.6,133.4 150.9,182.4 	"/>
	<g id="full_6_">
		<polygon class="st2" points="268.6,98.1 173.2,49.4 173.2,84.4 234.3,115.7 		"/>
	</g>
	<g>
		<g>
			<polygon class="st2" points="177,145.1 175,146.2 198.8,168.9 200.9,167.8 			"/>
			<polygon class="st2" points="185.9,140.6 183.8,141.6 207.7,164.3 209.8,163.3 			"/>
			<polygon class="st2" points="181.5,142.8 179.4,143.9 203.3,166.6 205.4,165.6 			"/>
			<polygon class="st2" points="203.6,131.4 201.6,132.5 225.4,155.2 227.5,154.2 			"/>
			<polygon class="st2" points="208.1,129.2 206,130.2 229.9,153 231.9,151.9 			"/>
			<polygon class="st2" points="199.2,133.7 197.1,134.8 221,157.5 223.1,156.5 			"/>
			<polygon class="st2" points="194.8,136 192.7,137.1 216.6,159.8 218.6,158.7 			"/>
			<polygon class="st2" points="173.2,173.9 173.2,177 176.7,180.3 178.8,179.2 			"/>
			<polygon class="st2" points="268.6,98.9 268.6,98.1 268,98.4 			"/>
			<polygon class="st2" points="173.2,167.4 173.2,170.5 181.1,178 183.2,176.9 			"/>
			<polygon class="st2" points="173.2,154.5 173.2,157.5 190,173.5 192.1,172.4 			"/>
			<polygon class="st2" points="173.2,161 173.2,164 185.6,175.7 187.6,174.7 			"/>
			<polygon class="st2" points="173.2,148 173.2,151 194.4,171.2 196.5,170.1 			"/>
			<polygon class="st2" points="190.3,138.3 188.3,139.3 212.1,162.1 214.2,161 			"/>
			<polygon class="st2" points="243.5,111 241.4,112 265.3,134.8 267.4,133.7 			"/>
			<polygon class="st2" points="252.3,106.4 250.3,107.5 268.6,124.9 268.6,121.8 			"/>
			<polygon class="st2" points="247.9,108.7 245.8,109.7 268.6,131.4 268.6,128.3 			"/>
			<polygon class="st2" points="256.8,104.1 254.7,105.2 268.6,118.4 268.6,115.3 			"/>
			<polygon class="st2" points="173.2,180.4 173.2,182.1 174.3,181.5 			"/>
			<polygon class="st2" points="265.6,99.6 263.6,100.6 268.6,105.4 268.6,102.4 			"/>
			<polygon class="st2" points="261.2,101.9 259.1,102.9 268.6,111.9 268.6,108.9 			"/>
			<polygon class="st2" points="212.5,126.9 210.4,128 234.3,150.7 236.4,149.6 			"/>
			<polygon class="st2" points="239.1,113.2 237,114.3 260.9,137 262.9,136 			"/>
			<polygon class="st2" points="225.8,120.1 223.7,121.1 247.6,143.9 249.6,142.8 			"/>
			<polygon class="st2" points="216.9,124.6 214.8,125.7 238.7,148.4 240.8,147.3 			"/>
			<polygon class="st2" points="221.3,122.3 219.3,123.4 243.1,146.1 245.2,145.1 			"/>
			<polygon class="st2" points="230.2,117.8 228.1,118.9 252,141.6 254.1,140.5 			"/>
			<polygon class="st2" points="234.6,115.5 232.6,116.6 256.4,139.3 258.5,138.2 			"/>
		</g>
	</g>
	<g>
		<g>
			<polygon class="st2" points="63.8,94.1 61.7,95.1 85.6,117.9 87.7,116.8 			"/>
			<polygon class="st2" points="72.7,89.5 70.6,90.6 94.5,113.3 96.5,112.3 			"/>
			<polygon class="st2" points="68.2,91.8 66.2,92.9 90,115.6 92.1,114.5 			"/>
			<polygon class="st2" points="59.4,96.4 57.3,97.4 81.2,120.2 83.3,119.1 			"/>
			<polygon class="st2" points="90.4,80.4 88.3,81.5 112.2,104.2 114.3,103.1 			"/>
			<polygon class="st2" points="86,82.7 83.9,83.8 107.8,106.5 109.8,105.4 			"/>
			<polygon class="st2" points="81.5,85 79.5,86 103.3,108.8 105.4,107.7 			"/>
			<polygon class="st2" points="55.6,99.2 55.6,102.3 76.8,122.4 78.8,121.4 			"/>
			<polygon class="st2" points="55.6,125.2 55.6,128.2 59,131.5 61.1,130.5 			"/>
			<polygon class="st2" points="150.9,50.2 150.9,49.3 150.3,49.6 			"/>
			<polygon class="st2" points="55.6,118.7 55.6,121.7 63.5,129.3 65.5,128.2 			"/>
			<polygon class="st2" points="55.6,105.7 55.6,108.8 72.3,124.7 74.4,123.6 			"/>
			<polygon class="st2" points="55.6,112.2 55.6,115.2 67.9,127 70,125.9 			"/>
			<polygon class="st2" points="77.1,87.3 75,88.3 98.9,111 101,110 			"/>
			<polygon class="st2" points="134.7,57.7 132.6,58.7 150.9,76.1 150.9,73.1 			"/>
			<polygon class="st2" points="139.1,55.4 137,56.4 150.9,69.6 150.9,66.6 			"/>
			<polygon class="st2" points="130.3,59.9 128.2,61 150.9,82.6 150.9,79.6 			"/>
			<polygon class="st2" points="55.6,131.7 55.6,133.3 56.7,132.7 			"/>
			<polygon class="st2" points="143.5,53.1 141.5,54.2 150.9,63.1 150.9,60.1 			"/>
			<polygon class="st2" points="125.8,62.2 123.7,63.3 147.6,86 149.7,84.9 			"/>
			<polygon class="st2" points="148,50.8 145.9,51.9 150.9,56.6 150.9,53.6 			"/>
			<polygon class="st2" points="99.2,75.9 97.2,76.9 121,99.7 123.1,98.6 			"/>
			<polygon class="st2" points="103.7,73.6 101.6,74.7 125.5,97.4 127.6,96.3 			"/>
			<polygon class="st2" points="121.4,64.5 119.3,65.6 143.2,88.3 145.3,87.2 			"/>
			<polygon class="st2" points="108.1,71.3 106,72.4 129.9,95.1 132,94 			"/>
			<polygon class="st2" points="94.8,78.1 92.7,79.2 116.6,101.9 118.7,100.9 			"/>
			<polygon class="st2" points="117,66.8 114.9,67.8 138.8,90.6 140.8,89.5 			"/>
			<polygon class="st2" points="112.5,69 110.5,70.1 134.3,92.8 136.4,91.8 			"/>
		</g>
	</g>
	<g>
		<path class="st2" d="M285.5,81.4l14.7,22.6h0.1V81.4h3.5v27.8h-4.1l-14.5-22.3h-0.1v22.3h-3.5V81.4H285.5z"/>
		<path class="st2" d="M308.9,85.5v-4.1h3.3v4.1H308.9z M312.2,89.1v20.2h-3.3V89.1H312.2z"/>
		<path class="st2" d="M328.9,92.6c-0.8-0.7-2-1.1-3.4-1.1c-1.2,0-2.2,0.2-3,0.7c-0.8,0.4-1.5,1-1.9,1.8c-0.5,0.7-0.8,1.6-1,2.5
			c-0.2,0.9-0.3,1.9-0.3,2.9c0,0.9,0.1,1.8,0.3,2.7s0.6,1.7,1,2.4c0.5,0.7,1.1,1.2,1.8,1.7c0.8,0.4,1.7,0.6,2.7,0.6
			c1.6,0,2.9-0.4,3.8-1.3s1.5-2.1,1.7-3.6h3.4c-0.4,2.5-1.3,4.4-2.8,5.8c-1.5,1.4-3.5,2-6.1,2c-1.5,0-2.9-0.2-4.1-0.7
			c-1.2-0.5-2.2-1.2-3-2.1c-0.8-0.9-1.4-2-1.8-3.3c-0.4-1.3-0.6-2.6-0.6-4.2s0.2-2.9,0.6-4.2c0.4-1.3,1-2.5,1.8-3.4
			c0.8-1,1.8-1.7,3-2.3c1.2-0.6,2.6-0.8,4.2-0.8c1.1,0,2.2,0.1,3.2,0.4c1,0.3,1.9,0.7,2.7,1.3c0.8,0.6,1.4,1.3,1.9,2.2
			s0.8,1.9,0.9,3.1h-3.4C330.3,94.3,329.7,93.3,328.9,92.6z"/>
		<path class="st2" d="M336.8,95c0.4-1.3,1-2.4,1.9-3.4c0.8-0.9,1.9-1.7,3.1-2.2c1.2-0.5,2.6-0.8,4.2-0.8c1.6,0,3,0.3,4.2,0.8
			c1.2,0.5,2.2,1.3,3.1,2.2c0.8,0.9,1.5,2.1,1.9,3.4c0.4,1.3,0.6,2.7,0.6,4.2c0,1.5-0.2,2.9-0.6,4.1c-0.4,1.3-1,2.4-1.9,3.3
			c-0.8,0.9-1.9,1.7-3.1,2.2c-1.2,0.5-2.6,0.8-4.2,0.8c-1.6,0-3-0.3-4.2-0.8c-1.2-0.5-2.2-1.3-3.1-2.2c-0.8-0.9-1.5-2.1-1.9-3.3
			c-0.4-1.3-0.6-2.7-0.6-4.1C336.2,97.7,336.4,96.3,336.8,95z M340.2,102.4c0.3,1,0.8,1.7,1.3,2.4c0.6,0.6,1.2,1.1,2,1.5
			c0.8,0.3,1.6,0.5,2.4,0.5c0.9,0,1.7-0.2,2.4-0.5c0.8-0.3,1.4-0.8,2-1.5c0.6-0.6,1-1.4,1.3-2.4c0.3-0.9,0.5-2,0.5-3.3
			c0-1.2-0.2-2.3-0.5-3.3s-0.8-1.7-1.3-2.4s-1.2-1.1-2-1.5c-0.8-0.3-1.6-0.5-2.4-0.5c-0.9,0-1.7,0.2-2.4,0.5c-0.8,0.3-1.4,0.8-2,1.5
			c-0.6,0.7-1,1.4-1.3,2.4s-0.5,2-0.5,3.3C339.7,100.4,339.9,101.5,340.2,102.4z"/>
		<path class="st2" d="M362.7,81.4v27.8h-3.3V81.4H362.7z"/>
		<path class="st2" d="M385.2,109.2c-0.6,0.3-1.4,0.5-2.4,0.5c-0.9,0-1.5-0.2-2-0.7c-0.5-0.5-0.8-1.3-0.8-2.4
			c-0.9,1.1-2,1.9-3.2,2.4c-1.2,0.5-2.5,0.7-3.9,0.7c-0.9,0-1.8-0.1-2.6-0.3c-0.8-0.2-1.5-0.5-2.1-1c-0.6-0.4-1.1-1-1.4-1.7
			c-0.4-0.7-0.5-1.6-0.5-2.6c0-1.1,0.2-2.1,0.6-2.8c0.4-0.7,0.9-1.3,1.5-1.8s1.4-0.8,2.2-1c0.8-0.2,1.7-0.4,2.5-0.6
			c0.9-0.2,1.8-0.3,2.6-0.4c0.8-0.1,1.5-0.2,2.2-0.4c0.6-0.2,1.1-0.4,1.5-0.7s0.5-0.8,0.5-1.4c0-0.7-0.1-1.3-0.4-1.8
			c-0.3-0.4-0.6-0.8-1.1-1c-0.4-0.2-0.9-0.4-1.4-0.5c-0.5-0.1-1.1-0.1-1.6-0.1c-1.4,0-2.6,0.3-3.5,0.8c-0.9,0.5-1.4,1.5-1.5,3H367
			c0.1-1.2,0.3-2.3,0.8-3.2s1.1-1.6,1.9-2.1s1.7-0.9,2.7-1.2c1-0.2,2.1-0.4,3.2-0.4c0.9,0,1.8,0.1,2.7,0.2c0.9,0.1,1.7,0.4,2.4,0.8
			c0.7,0.4,1.3,1,1.8,1.7c0.4,0.7,0.7,1.7,0.7,2.8v10.4c0,0.8,0,1.3,0.1,1.7c0.1,0.4,0.4,0.5,0.9,0.5c0.3,0,0.6-0.1,1-0.2V109.2z
			 M379.8,98.8c-0.4,0.3-1,0.5-1.6,0.7c-0.7,0.1-1.4,0.3-2.1,0.3c-0.7,0.1-1.5,0.2-2.2,0.3c-0.8,0.1-1.4,0.3-2,0.6
			c-0.6,0.3-1.1,0.6-1.5,1.1s-0.6,1.1-0.6,2c0,0.5,0.1,1,0.3,1.4c0.2,0.4,0.5,0.7,0.9,0.9s0.8,0.4,1.2,0.5s1,0.2,1.5,0.2
			c1.1,0,2-0.1,2.8-0.4c0.8-0.3,1.4-0.7,1.9-1.1c0.5-0.5,0.9-0.9,1.1-1.5c0.2-0.5,0.4-1,0.4-1.5V98.8z"/>
		<path class="st2" d="M390.3,104.7c0.3,0.5,0.7,0.9,1.2,1.2s1.1,0.5,1.7,0.6c0.6,0.1,1.3,0.2,2,0.2c0.5,0,1.1,0,1.6-0.1
			c0.6-0.1,1.1-0.2,1.6-0.4s0.9-0.5,1.2-0.9c0.3-0.4,0.5-0.9,0.5-1.5c0-0.9-0.3-1.5-1-2c-0.7-0.4-1.5-0.8-2.4-1.1
			c-1-0.3-2-0.5-3.2-0.7c-1.1-0.2-2.2-0.5-3.2-0.9c-1-0.4-1.8-1-2.4-1.7c-0.7-0.7-1-1.7-1-3c0-1,0.2-1.9,0.7-2.6
			c0.5-0.7,1-1.3,1.8-1.8s1.5-0.8,2.4-1c0.9-0.2,1.8-0.3,2.7-0.3c1.1,0,2.2,0.1,3.2,0.3c1,0.2,1.8,0.5,2.6,1
			c0.7,0.5,1.3,1.1,1.8,1.9c0.4,0.8,0.7,1.8,0.8,3.1h-3.3c-0.1-0.7-0.2-1.2-0.5-1.6c-0.3-0.4-0.7-0.8-1.1-1s-0.9-0.4-1.5-0.6
			c-0.5-0.1-1.1-0.2-1.6-0.2c-0.5,0-1,0-1.5,0.1c-0.5,0.1-1,0.2-1.4,0.4s-0.8,0.5-1,0.8c-0.3,0.3-0.4,0.7-0.4,1.3
			c0,0.6,0.2,1,0.6,1.4c0.4,0.4,0.9,0.7,1.5,0.9s1.3,0.5,2.1,0.6c0.8,0.2,1.6,0.3,2.3,0.5c0.8,0.2,1.6,0.4,2.4,0.7
			c0.8,0.3,1.5,0.6,2.1,1c0.6,0.4,1.1,1,1.5,1.6c0.4,0.7,0.6,1.5,0.6,2.4c0,1.2-0.3,2.2-0.8,3c-0.5,0.8-1.2,1.5-2,2
			c-0.8,0.5-1.7,0.8-2.8,1c-1,0.2-2,0.3-3.1,0.3c-1.1,0-2.2-0.1-3.2-0.4c-1-0.2-1.9-0.6-2.7-1.2c-0.8-0.5-1.4-1.2-1.9-2.1
			c-0.5-0.9-0.7-1.9-0.8-3.2h3.3C389.8,103.6,390,104.2,390.3,104.7z"/>
		<path class="st2" d="M417.6,81.4h4.9V105h14.2v4.2h-19V81.4z"/>
		<path class="st2" d="M442.3,100.3c0,0.8,0.1,1.5,0.3,2.3c0.2,0.7,0.6,1.4,1,1.9c0.4,0.5,1,1,1.7,1.3c0.7,0.3,1.5,0.5,2.4,0.5
			c1.3,0,2.3-0.3,3.1-0.8c0.8-0.6,1.4-1.4,1.8-2.5h4.2c-0.2,1.1-0.6,2.1-1.2,2.9c-0.6,0.9-1.3,1.6-2.1,2.2c-0.8,0.6-1.7,1-2.7,1.3
			s-2,0.4-3.1,0.4c-1.6,0-3-0.3-4.2-0.8c-1.2-0.5-2.3-1.2-3.1-2.2c-0.8-0.9-1.5-2.1-1.9-3.4c-0.4-1.3-0.6-2.7-0.6-4.3
			c0-1.4,0.2-2.8,0.7-4.1c0.5-1.3,1.1-2.4,1.9-3.4c0.8-1,1.9-1.7,3.1-2.3c1.2-0.6,2.5-0.9,4.1-0.9c1.6,0,3,0.3,4.3,1
			c1.3,0.7,2.3,1.5,3.1,2.6c0.8,1.1,1.4,2.3,1.8,3.8c0.4,1.4,0.5,2.9,0.3,4.4H442.3z M452.7,97.4c-0.1-0.7-0.2-1.4-0.4-2
			s-0.6-1.2-1-1.7c-0.4-0.5-0.9-0.9-1.6-1.2c-0.6-0.3-1.3-0.4-2-0.4c-0.8,0-1.5,0.1-2.1,0.4c-0.6,0.3-1.2,0.7-1.6,1.1
			c-0.5,0.5-0.8,1-1.1,1.7c-0.3,0.6-0.4,1.4-0.4,2.1H452.7z"/>
		<path class="st2" d="M460.1,81.4h4.4v10.3h0.1c0.3-0.5,0.7-0.9,1.1-1.3c0.4-0.4,0.9-0.7,1.5-1c0.5-0.3,1.1-0.5,1.7-0.6
			c0.6-0.1,1.2-0.2,1.7-0.2c1.6,0,3,0.3,4.2,0.8c1.2,0.6,2.2,1.3,2.9,2.3c0.8,1,1.4,2.1,1.8,3.4c0.4,1.3,0.6,2.7,0.6,4.2
			c0,1.4-0.2,2.7-0.5,3.9s-0.9,2.4-1.6,3.4c-0.7,1-1.6,1.8-2.7,2.3c-1.1,0.6-2.4,0.9-3.9,0.9c-0.7,0-1.4,0-2-0.1
			c-0.7-0.1-1.3-0.3-2-0.5s-1.2-0.6-1.7-1s-0.9-1-1.3-1.6h-0.1v2.8h-4.2V81.4z M475.6,99.2c0-0.9-0.1-1.8-0.4-2.7s-0.6-1.6-1.1-2.3
			c-0.5-0.7-1.1-1.2-1.8-1.6c-0.7-0.4-1.5-0.6-2.4-0.6c-1.9,0-3.3,0.7-4.2,2c-1,1.3-1.4,3-1.4,5.2c0,1,0.1,2,0.4,2.8
			s0.6,1.6,1.1,2.2s1.1,1.1,1.8,1.5c0.7,0.4,1.5,0.5,2.4,0.5c1,0,1.9-0.2,2.6-0.6c0.7-0.4,1.3-1,1.7-1.6c0.5-0.7,0.8-1.4,1-2.3
			C475.5,100.9,475.6,100.1,475.6,99.2z"/>
		<path class="st2" d="M483.3,89.1h4.2V93h0.1c0.1-0.5,0.4-1.1,0.8-1.6c0.4-0.5,0.8-1,1.4-1.4c0.5-0.4,1.1-0.8,1.8-1
			c0.6-0.3,1.3-0.4,2-0.4c0.5,0,0.9,0,1.1,0c0.2,0,0.4,0.1,0.6,0.1v4.3c-0.3-0.1-0.6-0.1-1-0.1s-0.6-0.1-1-0.1
			c-0.8,0-1.5,0.1-2.1,0.4s-1.2,0.7-1.7,1.3s-0.9,1.3-1.2,2.2c-0.3,0.9-0.4,1.8-0.4,3v9.6h-4.4V89.1z"/>
		<path class="st2" d="M514.2,109.2h-4.4v-2.8h-0.1c-0.5,1-1.4,1.8-2.4,2.4c-1.1,0.6-2.2,0.9-3.3,0.9c-2.7,0-4.6-0.7-5.8-2
			c-1.2-1.3-1.8-3.3-1.8-5.9V89.1h4.4v12.4c0,1.8,0.3,3,1,3.7c0.7,0.7,1.6,1.1,2.8,1.1c0.9,0,1.7-0.1,2.3-0.4s1.1-0.7,1.5-1.2
			c0.4-0.5,0.7-1.1,0.8-1.7c0.2-0.7,0.3-1.4,0.3-2.2V89.1h4.4V109.2z"/>
		<path class="st2" d="M518.4,89.1h4.2v3l0.1,0.1c0.7-1.1,1.6-2,2.7-2.6c1.1-0.6,2.3-1,3.6-1c2.2,0,4,0.6,5.2,1.7
			c1.3,1.1,1.9,2.9,1.9,5.1v13.8h-4.4V96.6c-0.1-1.6-0.4-2.7-1-3.5c-0.6-0.7-1.6-1.1-2.9-1.1c-0.8,0-1.4,0.1-2,0.4
			c-0.6,0.3-1.1,0.7-1.5,1.1c-0.4,0.5-0.7,1-1,1.7c-0.2,0.6-0.4,1.3-0.4,2.1v11.9h-4.4V89.1z"/>
		<path class="st2" d="M281,125.3v-3.7h3.1v3.7H281z M284.1,128.6v18.6H281v-18.6H284.1z"/>
		<path class="st2" d="M291.7,128.6v3h0.1c1.3-2.3,3.3-3.4,6-3.4c1.2,0,2.2,0.2,3.1,0.5c0.8,0.3,1.5,0.8,2,1.4s0.9,1.3,1.1,2.1
			c0.2,0.8,0.3,1.7,0.3,2.8v12.2h-3.1v-12.6c0-1.2-0.3-2.1-1-2.7s-1.6-1-2.8-1c-0.9,0-1.7,0.1-2.4,0.4c-0.7,0.3-1.3,0.7-1.7,1.2
			c-0.5,0.5-0.8,1.1-1,1.9c-0.2,0.7-0.3,1.5-0.3,2.3v10.5h-3.1v-18.6H291.7z"/>
		<path class="st2" d="M307,131.3v-2.7h3.1v-2.8c0-1.5,0.4-2.7,1.3-3.4s2.2-1.2,3.8-1.2c0.3,0,0.6,0,1,0.1c0.4,0,0.7,0.1,1,0.2v2.7
			c-0.3-0.1-0.6-0.2-0.9-0.2c-0.3,0-0.6-0.1-0.9-0.1c-0.7,0-1.3,0.1-1.7,0.4c-0.4,0.3-0.6,0.8-0.6,1.7v2.6h3.6v2.7h-3.6v15.9h-3.1
			v-15.9H307z"/>
		<path class="st2" d="M319.1,134.1c0.4-1.2,1-2.2,1.7-3.1c0.8-0.9,1.7-1.6,2.8-2.1c1.1-0.5,2.4-0.8,3.9-0.8c1.5,0,2.8,0.3,3.9,0.8
			c1.1,0.5,2.1,1.2,2.8,2.1c0.8,0.9,1.3,1.9,1.7,3.1c0.4,1.2,0.6,2.5,0.6,3.8c0,1.4-0.2,2.6-0.6,3.8s-1,2.2-1.7,3.1
			c-0.8,0.9-1.7,1.6-2.8,2.1c-1.1,0.5-2.4,0.7-3.9,0.7c-1.5,0-2.8-0.2-3.9-0.7c-1.1-0.5-2.1-1.2-2.8-2.1c-0.8-0.9-1.3-1.9-1.7-3.1
			s-0.6-2.4-0.6-3.8C318.5,136.6,318.7,135.3,319.1,134.1z M322.2,141c0.3,0.9,0.7,1.6,1.2,2.2c0.5,0.6,1.1,1,1.9,1.3
			s1.5,0.5,2.2,0.5s1.5-0.2,2.2-0.5s1.3-0.8,1.9-1.3c0.5-0.6,0.9-1.3,1.2-2.2c0.3-0.9,0.5-1.9,0.5-3c0-1.1-0.2-2.1-0.5-3
			c-0.3-0.9-0.7-1.6-1.2-2.2c-0.5-0.6-1.1-1.1-1.9-1.4c-0.7-0.3-1.5-0.5-2.2-0.5s-1.5,0.2-2.2,0.5c-0.7,0.3-1.3,0.8-1.9,1.4
			c-0.5,0.6-0.9,1.3-1.2,2.2c-0.3,0.9-0.5,1.9-0.5,3C321.8,139.1,321.9,140.1,322.2,141z"/>
		<path class="st2" d="M354.2,152.5c-1.4,1.5-3.6,2.3-6.6,2.3c-0.9,0-1.7-0.1-2.6-0.3c-0.9-0.2-1.7-0.5-2.4-0.9
			c-0.7-0.4-1.3-1-1.8-1.7s-0.7-1.5-0.8-2.6h3.1c0,0.6,0.2,1,0.5,1.4c0.3,0.4,0.7,0.7,1.2,0.9s1,0.4,1.5,0.5
			c0.6,0.1,1.1,0.2,1.6,0.2c1,0,1.9-0.2,2.6-0.5c0.7-0.3,1.3-0.8,1.7-1.4s0.8-1.3,1-2.2c0.2-0.9,0.3-1.8,0.3-2.8v-1.2h-0.1
			c-0.5,1.2-1.3,2-2.4,2.5c-1.1,0.5-2.2,0.8-3.4,0.8c-1.4,0-2.6-0.3-3.6-0.8s-1.9-1.2-2.6-2c-0.7-0.9-1.2-1.8-1.6-3
			c-0.3-1.1-0.5-2.3-0.5-3.6c0-1.1,0.1-2.2,0.4-3.4c0.3-1.2,0.8-2.2,1.4-3.2c0.7-0.9,1.6-1.7,2.7-2.3c1.1-0.6,2.5-0.9,4.1-0.9
			c1.2,0,2.3,0.3,3.2,0.8c1,0.5,1.8,1.3,2.3,2.3h0v-2.7h2.9v17C356.2,148.7,355.6,151,354.2,152.5z M350.3,144.1
			c0.7-0.4,1.3-1,1.7-1.7c0.4-0.7,0.8-1.5,1-2.3c0.2-0.9,0.3-1.7,0.3-2.6c0-0.8-0.1-1.6-0.3-2.4c-0.2-0.8-0.5-1.5-0.9-2.1
			s-1-1.1-1.6-1.5c-0.7-0.4-1.5-0.6-2.4-0.6c-1,0-1.8,0.2-2.5,0.6c-0.7,0.4-1.3,0.9-1.7,1.5c-0.4,0.6-0.8,1.3-1,2.2
			c-0.2,0.8-0.3,1.7-0.3,2.6c0,0.8,0.1,1.7,0.3,2.5s0.5,1.6,0.9,2.3c0.4,0.7,0.9,1.2,1.6,1.7c0.7,0.4,1.5,0.6,2.5,0.6
			S349.5,144.6,350.3,144.1z"/>
		<path class="st2" d="M363.6,128.6v3.9h0.1c0.7-1.5,1.7-2.6,2.7-3.3c1.1-0.7,2.4-1.1,4.1-1v3.2c-1.2,0-2.3,0.2-3.1,0.5
			c-0.9,0.3-1.6,0.8-2.1,1.5c-0.5,0.6-0.9,1.4-1.2,2.4c-0.2,0.9-0.4,2-0.4,3.2v8.3h-3.1v-18.6H363.6z"/>
		<path class="st2" d="M389.3,147.2c-0.5,0.3-1.3,0.5-2.2,0.5c-0.8,0-1.4-0.2-1.9-0.7c-0.5-0.4-0.7-1.2-0.7-2.2
			c-0.8,1-1.8,1.7-2.9,2.2c-1.1,0.4-2.3,0.7-3.6,0.7c-0.8,0-1.6-0.1-2.4-0.3c-0.8-0.2-1.4-0.5-2-0.9s-1-0.9-1.3-1.6
			s-0.5-1.5-0.5-2.4c0-1.1,0.2-1.9,0.5-2.6s0.8-1.2,1.4-1.6s1.3-0.7,2-1c0.8-0.2,1.5-0.4,2.3-0.5c0.8-0.2,1.6-0.3,2.4-0.4
			s1.4-0.2,2-0.4s1-0.4,1.4-0.7c0.3-0.3,0.5-0.7,0.5-1.3c0-0.7-0.1-1.2-0.4-1.6c-0.3-0.4-0.6-0.7-1-0.9c-0.4-0.2-0.8-0.4-1.3-0.4
			s-1-0.1-1.5-0.1c-1.3,0-2.4,0.2-3.2,0.7c-0.9,0.5-1.3,1.4-1.4,2.8h-3.1c0-1.2,0.3-2.1,0.7-2.9c0.4-0.8,1-1.4,1.7-1.9
			s1.5-0.8,2.5-1.1c0.9-0.2,1.9-0.3,3-0.3c0.8,0,1.7,0.1,2.5,0.2c0.8,0.1,1.6,0.4,2.2,0.7c0.7,0.4,1.2,0.9,1.6,1.6
			c0.4,0.7,0.6,1.5,0.6,2.6v9.6c0,0.7,0,1.2,0.1,1.6c0.1,0.3,0.4,0.5,0.8,0.5c0.3,0,0.6,0,0.9-0.1V147.2z M384.4,137.6
			c-0.4,0.3-0.9,0.5-1.5,0.6c-0.6,0.1-1.3,0.2-2,0.3c-0.7,0.1-1.4,0.2-2.1,0.3c-0.7,0.1-1.3,0.3-1.9,0.5c-0.6,0.2-1,0.6-1.4,1
			s-0.5,1-0.5,1.8c0,0.5,0.1,0.9,0.3,1.3c0.2,0.3,0.5,0.6,0.8,0.8c0.3,0.2,0.7,0.4,1.1,0.5c0.4,0.1,0.9,0.1,1.4,0.1
			c1,0,1.9-0.1,2.6-0.4c0.7-0.3,1.3-0.6,1.8-1c0.5-0.4,0.8-0.9,1-1.4c0.2-0.5,0.3-0.9,0.3-1.4V137.6z"/>
		<path class="st2" d="M395.3,128.6v2.5h0.1c0.5-1,1.3-1.8,2.4-2.2c1.1-0.5,2.3-0.7,3.6-0.7c1.4,0,2.7,0.3,3.8,0.8
			c1.1,0.5,2,1.2,2.7,2.1c0.7,0.9,1.2,1.9,1.6,3.1c0.4,1.2,0.5,2.4,0.5,3.7s-0.2,2.6-0.5,3.7c-0.3,1.2-0.9,2.2-1.6,3.1
			c-0.7,0.9-1.6,1.6-2.7,2.1c-1.1,0.5-2.3,0.8-3.7,0.8c-0.5,0-1,0-1.5-0.1c-0.6-0.1-1.1-0.3-1.7-0.5c-0.6-0.2-1.1-0.5-1.6-0.9
			c-0.5-0.4-0.9-0.8-1.2-1.4h-0.1v9.6h-3.1v-25.7H395.3z M406.3,135.2c-0.2-0.8-0.6-1.6-1-2.2s-1.1-1.2-1.8-1.5
			c-0.7-0.4-1.6-0.6-2.6-0.6c-1,0-1.9,0.2-2.6,0.6s-1.3,0.9-1.8,1.6c-0.5,0.7-0.8,1.4-1,2.2s-0.3,1.7-0.3,2.6c0,0.9,0.1,1.8,0.3,2.6
			c0.2,0.9,0.6,1.6,1,2.2c0.5,0.6,1.1,1.2,1.8,1.6c0.7,0.4,1.6,0.6,2.7,0.6c1.1,0,1.9-0.2,2.6-0.6s1.3-0.9,1.7-1.6s0.7-1.4,0.9-2.3
			c0.2-0.9,0.3-1.8,0.3-2.7C406.7,136.9,406.6,136.1,406.3,135.2z"/>
		<path class="st2" d="M416.6,121.5v9.8h0.1c0.2-0.6,0.6-1.1,1-1.5c0.4-0.4,0.9-0.7,1.5-1s1.1-0.4,1.7-0.6c0.6-0.1,1.2-0.2,1.7-0.2
			c1.2,0,2.2,0.2,3.1,0.5c0.8,0.3,1.5,0.8,2,1.4s0.9,1.3,1.1,2.1c0.2,0.8,0.3,1.7,0.3,2.8v12.2h-3.1v-12.6c0-1.2-0.3-2.1-1-2.7
			s-1.6-1-2.8-1c-0.9,0-1.7,0.1-2.4,0.4c-0.7,0.3-1.3,0.7-1.7,1.2c-0.5,0.5-0.8,1.1-1,1.9c-0.2,0.7-0.3,1.5-0.3,2.3v10.5h-3.1v-25.7
			H416.6z"/>
		<path class="st2" d="M433.7,125.3v-3.7h3.1v3.7H433.7z M436.8,128.6v18.6h-3.1v-18.6H436.8z"/>
		<path class="st2" d="M443.9,143.1c0.3,0.5,0.7,0.8,1.1,1.1c0.5,0.3,1,0.5,1.6,0.6c0.6,0.1,1.2,0.2,1.8,0.2c0.5,0,1,0,1.5-0.1
			c0.5-0.1,1-0.2,1.5-0.4c0.4-0.2,0.8-0.5,1.1-0.8c0.3-0.4,0.4-0.8,0.4-1.4c0-0.8-0.3-1.4-0.9-1.8c-0.6-0.4-1.4-0.7-2.2-1
			c-0.9-0.3-1.9-0.5-2.9-0.7c-1.1-0.2-2-0.5-2.9-0.9c-0.9-0.4-1.7-0.9-2.2-1.6c-0.6-0.7-0.9-1.6-0.9-2.8c0-0.9,0.2-1.7,0.6-2.4
			s1-1.2,1.6-1.6s1.4-0.7,2.2-0.9s1.6-0.3,2.5-0.3c1.1,0,2,0.1,2.9,0.3c0.9,0.2,1.7,0.5,2.4,0.9c0.7,0.4,1.2,1,1.6,1.8
			s0.6,1.7,0.7,2.8h-3.1c0-0.6-0.2-1.1-0.5-1.5c-0.3-0.4-0.6-0.7-1-1s-0.9-0.4-1.3-0.5c-0.5-0.1-1-0.2-1.5-0.2c-0.5,0-0.9,0-1.4,0.1
			s-0.9,0.2-1.3,0.4c-0.4,0.2-0.7,0.4-0.9,0.7c-0.2,0.3-0.4,0.7-0.4,1.2c0,0.5,0.2,1,0.6,1.3s0.8,0.6,1.4,0.9
			c0.6,0.2,1.2,0.4,1.9,0.6c0.7,0.2,1.4,0.3,2.2,0.5c0.8,0.2,1.5,0.4,2.2,0.6c0.7,0.2,1.4,0.6,1.9,1c0.6,0.4,1,0.9,1.4,1.5
			c0.3,0.6,0.5,1.3,0.5,2.2c0,1.1-0.2,2.1-0.7,2.8s-1.1,1.3-1.8,1.8s-1.6,0.8-2.6,1c-0.9,0.2-1.9,0.3-2.8,0.3c-1,0-2-0.1-3-0.3
			c-0.9-0.2-1.8-0.6-2.5-1.1c-0.7-0.5-1.3-1.1-1.7-1.9c-0.4-0.8-0.7-1.8-0.7-2.9h3.1C443.4,142.1,443.6,142.6,443.9,143.1z"/>
		<path class="st2" d="M467.5,128.6v2.7h-3.7v11.6c0,0.4,0,0.6,0.1,0.9c0.1,0.2,0.2,0.4,0.3,0.5c0.2,0.1,0.4,0.2,0.7,0.2
			c0.3,0,0.7,0.1,1.2,0.1h1.4v2.7h-2.3c-0.8,0-1.5-0.1-2-0.2s-1-0.3-1.4-0.6c-0.3-0.3-0.6-0.7-0.8-1.2s-0.3-1.2-0.3-2.1v-11.8h-3.2
			v-2.7h3.2v-5.6h3.1v5.6H467.5z"/>
		<path class="st2" d="M484,146.1c-1.4,1.1-3.1,1.6-5.3,1.6c-1.5,0-2.8-0.2-3.9-0.7c-1.1-0.5-2-1.2-2.8-2c-0.7-0.9-1.3-1.9-1.7-3.1
			c-0.4-1.2-0.6-2.5-0.6-3.9c0-1.4,0.2-2.7,0.6-3.9c0.4-1.2,1-2.2,1.8-3.1s1.7-1.5,2.8-2c1.1-0.5,2.2-0.7,3.5-0.7c1.7,0,3,0.3,4.1,1
			c1.1,0.7,2,1.6,2.6,2.6s1.1,2.2,1.4,3.5c0.3,1.2,0.4,2.4,0.3,3.6h-13.9c0,0.8,0.1,1.6,0.3,2.3s0.6,1.4,1,1.9
			c0.5,0.6,1.1,1,1.8,1.3c0.7,0.3,1.6,0.5,2.6,0.5c1.3,0,2.4-0.3,3.2-0.9c0.8-0.6,1.4-1.5,1.6-2.7h3
			C486.3,143.4,485.4,145,484,146.1z M483.3,134.1c-0.3-0.6-0.6-1.2-1.1-1.7s-1-0.8-1.7-1.1c-0.6-0.3-1.3-0.4-2.1-0.4
			c-0.8,0-1.5,0.1-2.1,0.4c-0.6,0.3-1.2,0.7-1.6,1.1c-0.5,0.5-0.8,1-1.1,1.7c-0.3,0.6-0.4,1.3-0.5,2h10.7
			C483.7,135.4,483.6,134.8,483.3,134.1z"/>
	</g>
	<path class="st2" d="M56.1,98.5"/>
</g>
</svg>
